<?xml version="1.0" encoding="UTF-8" ?>
<!DOCTYPE svg PUBLIC "-//W3C//DTD SVG 1.1//EN" "http://www.w3.org/Graphics/SVG/1.1/DTD/svg11.dtd">
<svg width="512pt" height="512pt" viewBox="0 0 512 512" version="1.1" xmlns="http://www.w3.org/2000/svg">
<g id="#000000ff">
<path fill="#7ccf9e" opacity="1.00" d=" M 120.07 131.12 C 122.89 128.39 126.98 126.86 130.89 127.74 C 136.82 128.83 141.19 135.16 139.88 141.10 C 139.15 145.50 135.46 148.42 132.55 151.47 C 101.63 182.40 70.65 213.28 39.79 244.27 C 190.86 244.36 341.94 244.29 493.01 244.31 C 497.58 244.40 502.64 243.69 506.69 246.33 C 509.83 248.29 511.49 251.86 512.00 255.43 L 512.00 256.47 C 511.52 262.98 505.55 268.03 499.07 267.58 C 345.97 267.64 192.87 267.55 39.77 267.62 C 70.79 298.80 101.92 329.86 132.99 360.98 C 136.38 364.19 140.27 367.93 140.09 373.00 C 140.28 379.67 133.75 385.46 127.14 384.40 C 123.60 384.15 120.92 381.67 118.52 379.33 C 81.71 342.53 44.89 305.73 8.08 268.92 C 4.50 265.50 0.47 261.79 0.00 256.53 L 0.00 255.47 C 0.41 252.01 2.20 248.91 4.67 246.51 C 43.15 208.05 81.60 169.58 120.07 131.12 Z" />
</g>
</svg>
