<?xml version="1.0" encoding="UTF-8" ?>
<!DOCTYPE svg PUBLIC "-//W3C//DTD SVG 1.1//EN" "http://www.w3.org/Graphics/SVG/1.1/DTD/svg11.dtd">
<svg width="512pt" height="512pt" viewBox="0 0 512 512" version="1.1" xmlns="http://www.w3.org/2000/svg">
<g id="#000000ff">
<path fill="#7ccf9e" opacity="1.00" d=" M 376.67 129.70 C 381.48 126.00 388.67 127.24 392.52 131.75 C 430.84 169.95 469.05 208.26 507.34 246.49 C 509.85 248.93 511.64 252.10 512.00 255.62 L 512.00 256.30 C 511.68 259.80 509.91 262.96 507.42 265.40 C 469.90 302.91 432.38 340.42 394.88 377.95 C 391.96 381.08 388.50 384.44 383.92 384.48 C 377.62 384.95 371.75 379.30 371.91 373.01 C 371.75 369.00 374.27 365.65 377.00 363.00 C 408.75 331.23 440.54 299.50 472.26 267.71 C 321.18 267.67 170.10 267.70 19.02 267.69 C 14.24 267.59 8.83 268.38 4.76 265.28 C 1.88 263.25 0.45 259.81 0.00 256.41 L 0.00 255.77 C 0.31 249.19 6.33 243.98 12.87 244.43 C 166.00 244.36 319.13 244.44 472.27 244.39 C 440.04 212.05 407.72 179.80 375.49 147.47 C 370.41 142.72 370.84 133.64 376.67 129.70 Z" />
</g>
</svg>
