<svg width="310" height="310" viewBox="0 0 310 310" fill="none" xmlns="http://www.w3.org/2000/svg">
<path d="M142.902 278.05L140.619 299.529L136.711 299.113L138.994 277.634L142.902 278.05Z" fill="#B5FFE1"/>
<path d="M130.426 276.265C131.536 276.526 132.396 277.149 133.007 278.135C133.618 279.121 133.792 280.169 133.532 281.279L130.497 294.187C130.236 295.297 129.613 296.157 128.627 296.767C127.641 297.378 126.593 297.553 125.484 297.292L112.605 294.265C111.475 293.999 110.606 293.373 109.995 292.388C109.384 291.402 109.209 290.354 109.47 289.244L109.855 287.609L113.739 288.522L113.554 289.31C113.425 289.855 113.393 290.166 113.458 290.243C113.517 290.339 113.81 290.449 114.335 290.573L125.579 293.216C126.124 293.344 126.445 293.378 126.541 293.319C126.613 293.274 126.713 292.979 126.841 292.434L129.477 281.219C129.606 280.674 129.65 280.356 129.61 280.264C129.545 280.188 129.241 280.085 128.696 279.957L117.452 277.314C116.926 277.19 116.618 277.149 116.526 277.189C116.43 277.248 116.318 277.551 116.19 278.096L115.455 281.221L120.215 282.34L119.302 286.224L110.658 284.192L112.505 276.336C112.766 275.226 113.389 274.366 114.375 273.755C115.361 273.145 116.418 272.972 117.547 273.238L130.426 276.265Z" fill="#B5FFE1"/>
<path d="M109.302 270.036C110.348 270.49 111.084 271.256 111.51 272.335C111.935 273.413 111.921 274.475 111.468 275.521L104.529 291.51L100.896 289.934L107.488 274.743C107.711 274.229 107.811 273.924 107.788 273.826C107.739 273.739 107.457 273.584 106.943 273.362L96.348 268.763C95.8527 268.548 95.5563 268.453 95.4591 268.476C95.3538 268.517 95.1897 268.795 94.9668 269.309L88.3742 284.5L84.714 282.911L91.653 266.922C92.1068 265.876 92.8731 265.141 93.9517 264.715C95.0304 264.289 96.0926 264.303 97.1384 264.757L109.302 270.036Z" fill="#B5FFE1"/>
<path d="M93.0149 262.524L80.873 280.388L77.2753 277.943L76.0441 265.825L64.3485 269.157L60.726 266.695L72.8678 248.831L76.1678 251.073L67.2637 264.174L79.518 260.714L80.8526 273.374L89.7397 260.298L93.0149 262.524Z" fill="#B5FFE1"/>
<path d="M73.144 248.28L60.7942 260.58C59.9865 261.384 59.0028 261.785 57.8431 261.783C56.6835 261.781 55.7014 261.376 54.897 260.568L45.561 251.194C44.7424 250.372 44.3343 249.381 44.3366 248.222C44.339 247.062 44.744 246.08 45.5517 245.275L57.9016 232.975L60.7172 235.803L55.5732 240.926L65.2056 250.597L70.3496 245.474L73.144 248.28ZM62.3998 253.392L52.7674 243.72L48.9838 247.488C48.587 247.884 48.3956 248.131 48.4095 248.23C48.4093 248.343 48.5997 248.591 48.9808 248.973L57.1313 257.157C57.5264 257.554 57.7806 257.752 57.8937 257.753C57.9786 257.753 58.2194 257.555 58.6162 257.16L62.3998 253.392Z" fill="#B5FFE1"/>
<path d="M47.1353 215.948L31.8398 224.675L36.2107 232.335L32.7451 234.313L22.0409 215.552L25.5064 213.574L29.8625 221.209L45.158 212.482L47.1353 215.948Z" fill="#B5FFE1"/>
<path d="M39.7413 200.716C40.1278 201.789 40.0743 202.85 39.5809 203.899C39.0874 204.949 38.3045 205.666 37.232 206.053L24.7572 210.548C23.6847 210.935 22.6238 210.881 21.5743 210.388C20.5249 209.894 19.807 209.111 19.4205 208.039L14.9252 195.564C14.5387 194.492 14.5922 193.431 15.0856 192.381C15.5791 191.332 16.362 190.614 17.4345 190.227L29.9093 185.732C30.9818 185.346 32.0427 185.399 33.0921 185.893C34.1416 186.386 34.8595 187.169 35.246 188.241L39.7413 200.716ZM35.7028 201.279L31.7872 190.413C31.6042 189.905 31.4709 189.623 31.3873 189.568C31.2849 189.52 30.9703 189.591 30.4435 189.781L19.6057 193.686C19.0788 193.876 18.8007 194.019 18.7714 194.114C18.7233 194.217 18.7907 194.522 18.9738 195.03L22.8894 205.896C23.0793 206.423 23.2254 206.71 23.3278 206.759C23.4046 206.795 23.7064 206.718 24.2332 206.528L35.071 202.622C35.5978 202.433 35.8887 202.296 35.9436 202.212C35.973 202.117 35.8927 201.805 35.7028 201.279Z" fill="#B5FFE1"/>
<path d="M34.1233 183.547L12.8356 187.207L12.1595 183.274L20.8224 181.785L19.9632 176.788L10.0498 171.004L9.31775 166.747L10.4413 166.554L21.3341 172.9L29.4768 163.25L30.6003 163.057L31.3374 167.344L23.8955 176.112L24.7547 181.109L33.4471 179.614L34.1233 183.547Z" fill="#B5FFE1"/>
<path d="M31.0106 162.339L9.41062 162.353L9.39804 142.463L13.388 142.46L13.3981 158.36L18.1981 158.357L18.19 145.577L22.18 145.575L22.1881 158.355L27.0181 158.352L27.008 142.452L30.998 142.449L31.0106 162.339Z" fill="#B5FFE1"/>
<path d="M31.4181 141.815L10.1367 138.118L10.8812 133.832L28.6977 123.468L13.1505 120.768L13.8334 116.837L35.1147 120.533L34.3702 124.819L16.519 135.207L32.0958 137.913L31.4181 141.815Z" fill="#B5FFE1"/>
<path d="M27.6262 96.3115C27.7157 96.1105 27.8621 95.9786 28.0652 95.9158C28.2582 95.8266 28.4551 95.8268 28.6561 95.9163C28.8388 95.9976 28.9707 96.144 29.0518 96.3552C29.141 96.5482 29.1408 96.7452 29.0513 96.9461C28.9699 97.1288 28.8236 97.2607 28.6123 97.3418C28.4011 97.4228 28.2041 97.4227 28.0214 97.3413C27.8204 97.2518 27.6886 97.1055 27.6258 96.9024C27.5447 96.6911 27.5449 96.4942 27.6262 96.3115ZM27.0942 98.8332C27.1838 98.6322 27.3301 98.5003 27.5332 98.4375C27.7262 98.3483 27.9231 98.3485 28.1241 98.438C28.3068 98.5193 28.4387 98.6657 28.5198 98.8769C28.609 99.0699 28.6088 99.2669 28.5193 99.4678C28.4379 99.6505 28.2916 99.7824 28.0803 99.8635C27.8691 99.9445 27.6721 99.9444 27.4894 99.863C27.2884 99.7735 27.1566 99.6272 27.0938 99.4241C27.0127 99.2128 27.0129 99.0159 27.0942 98.8332ZM29.1448 94.2292C29.2343 94.0282 29.3806 93.8963 29.5837 93.8335C29.7767 93.7443 29.9737 93.7445 30.1747 93.834C30.3574 93.9154 30.4893 94.0617 30.5703 94.2729C30.6595 94.4659 30.6594 94.6629 30.5699 94.8639C30.4885 95.0465 30.3422 95.1784 30.1309 95.2595C29.9197 95.3406 29.7227 95.3404 29.54 95.259C29.339 95.1695 29.2071 95.0232 29.1443 94.8201C29.0633 94.6088 29.0634 94.4119 29.1448 94.2292ZM27.8742 102.465C27.6732 102.375 27.5414 102.229 27.4786 102.026C27.3975 101.814 27.3977 101.617 27.479 101.435C27.5686 101.234 27.7149 101.102 27.918 101.039C28.111 100.95 28.3079 100.95 28.5089 101.04C28.6916 101.121 28.8235 101.267 28.9046 101.479C28.9938 101.672 28.9936 101.868 28.9041 102.069C28.8227 102.252 28.6764 102.384 28.4651 102.465C28.2539 102.546 28.0569 102.546 27.8742 102.465ZM31.7312 93.8047C31.5303 93.7152 31.3984 93.5689 31.3356 93.3658C31.2545 93.1545 31.2547 92.9576 31.3361 92.7749C31.4256 92.5739 31.5719 92.442 31.775 92.3792C31.968 92.29 32.165 92.2902 32.3659 92.3797C32.5486 92.4611 32.6805 92.6074 32.7616 92.8186C32.8508 93.0116 32.8506 93.2086 32.7611 93.4096C32.6797 93.5923 32.5334 93.7241 32.3222 93.8052C32.1109 93.8863 31.9139 93.8861 31.7312 93.8047ZM29.3285 104.656C29.1275 104.566 28.9957 104.42 28.9329 104.217C28.8518 104.006 28.852 103.809 28.9333 103.626C29.0228 103.425 29.1691 103.293 29.3723 103.23C29.5653 103.141 29.7622 103.141 29.9632 103.231C30.1459 103.312 30.2778 103.459 30.3588 103.67C30.448 103.863 30.4479 104.06 30.3584 104.261C30.277 104.443 30.1307 104.575 29.9194 104.656C29.7082 104.737 29.5112 104.737 29.3285 104.656ZM34.3329 93.4199C34.1319 93.3304 34 93.1841 33.9372 92.981C33.8562 92.7697 33.8563 92.5728 33.9377 92.3901C34.0272 92.1891 34.1735 92.0572 34.3766 91.9944C34.5696 91.9052 34.7666 91.9054 34.9676 91.9949C35.1503 92.0763 35.2821 92.2226 35.3632 92.4338C35.4524 92.6268 35.4522 92.8238 35.3627 93.0248C35.2814 93.2075 35.135 93.3393 34.9238 93.4204C34.7125 93.5015 34.5156 93.5013 34.3329 93.4199ZM31.4108 106.174C31.2098 106.085 31.0779 105.939 31.0152 105.736C30.9341 105.524 30.9343 105.327 31.0156 105.145C31.1051 104.944 31.2514 104.812 31.4546 104.749C31.6476 104.66 31.8445 104.66 32.0455 104.749C32.2282 104.831 32.3601 104.977 32.4411 105.188C32.5303 105.381 32.5302 105.578 32.4407 105.779C32.3593 105.962 32.213 106.094 32.0017 106.175C31.7905 106.256 31.5935 106.256 31.4108 106.174ZM36.8546 93.9519C36.6536 93.8624 36.5217 93.7161 36.4589 93.513C36.3779 93.3017 36.378 93.1048 36.4594 92.9221C36.5489 92.7211 36.6952 92.5892 36.8983 92.5264C37.0913 92.4372 37.2883 92.4374 37.4893 92.5269C37.672 92.6083 37.8038 92.7546 37.8849 92.9658C37.9741 93.1588 37.9739 93.3558 37.8844 93.5568C37.8031 93.7395 37.6567 93.8713 37.4455 93.9524C37.2342 94.0335 37.0373 94.0333 36.8546 93.9519ZM33.9325 106.706C33.7315 106.617 33.5997 106.471 33.5369 106.267C33.4558 106.056 33.456 105.859 33.5373 105.677C33.6268 105.476 33.7731 105.344 33.9763 105.281C34.1693 105.192 34.3662 105.192 34.5672 105.281C34.7499 105.363 34.8818 105.509 34.9628 105.72C35.052 105.913 35.0519 106.11 34.9624 106.311C34.881 106.494 34.7347 106.626 34.5234 106.707C34.3122 106.788 34.1152 106.788 33.9325 106.706ZM38.9369 95.4705C38.7359 95.381 38.604 95.2347 38.5412 95.0316C38.4602 94.8203 38.4603 94.6233 38.5417 94.4406C38.6312 94.2397 38.7775 94.1078 38.9806 94.045C39.1736 93.9558 39.3706 93.9559 39.5716 94.0454C39.7543 94.1268 39.8861 94.2731 39.9672 94.4844C40.0564 94.6774 40.0562 94.8743 39.9667 95.0753C39.8854 95.258 39.739 95.3899 39.5278 95.471C39.3165 95.552 39.1196 95.5519 38.9369 95.4705ZM36.5341 106.322C36.3332 106.232 36.2013 106.086 36.1385 105.883C36.0574 105.671 36.0576 105.474 36.139 105.292C36.2285 105.091 36.3748 104.959 36.5779 104.896C36.7709 104.807 36.9679 104.807 37.1688 104.897C37.3515 104.978 37.4834 105.124 37.5645 105.336C37.6537 105.529 37.6535 105.725 37.564 105.926C37.4826 106.109 37.3363 106.241 37.1251 106.322C36.9138 106.403 36.7168 106.403 36.5341 106.322ZM40.3911 97.6617C40.1902 97.5722 40.0583 97.4259 39.9955 97.2228C39.9144 97.0115 39.9146 96.8146 39.996 96.6319C40.0855 96.4309 40.2318 96.299 40.4349 96.2362C40.6279 96.147 40.8249 96.1472 41.0258 96.2367C41.2085 96.3181 41.3404 96.4644 41.4215 96.6756C41.5107 96.8686 41.5105 97.0656 41.421 97.2666C41.3396 97.4493 41.1933 97.5811 40.9821 97.6622C40.7708 97.7433 40.5738 97.7431 40.3911 97.6617ZM38.3302 103.837C38.4197 103.637 38.566 103.505 38.7691 103.442C38.9621 103.353 39.1591 103.353 39.3601 103.442C39.5428 103.524 39.6747 103.67 39.7557 103.881C39.8449 104.074 39.8448 104.271 39.7552 104.472C39.6739 104.655 39.5276 104.787 39.3163 104.868C39.1051 104.949 38.9081 104.949 38.7254 104.867C38.5244 104.778 38.3925 104.632 38.3297 104.428C38.2487 104.217 38.2488 104.02 38.3302 103.837ZM40.3808 99.2335C40.4703 99.0325 40.6166 98.9006 40.8197 98.8378C41.0127 98.7486 41.2097 98.7488 41.4106 98.8383C41.5933 98.9197 41.7252 99.066 41.8063 99.2772C41.8955 99.4702 41.8953 99.6672 41.8058 99.8682C41.7244 100.051 41.5781 100.183 41.3669 100.264C41.1556 100.345 40.9586 100.345 40.7759 100.263C40.575 100.174 40.4431 100.028 40.3803 99.8244C40.2992 99.6132 40.2994 99.4162 40.3808 99.2335ZM39.8488 101.755C39.9383 101.554 40.0846 101.422 40.2877 101.36C40.4807 101.27 40.6777 101.27 40.8786 101.36C41.0613 101.441 41.1932 101.588 41.2743 101.799C41.3635 101.992 41.3633 102.189 41.2738 102.39C41.1924 102.573 41.0461 102.704 40.8349 102.786C40.6236 102.867 40.4266 102.866 40.2439 102.785C40.043 102.696 39.9111 102.549 39.8483 102.346C39.7672 102.135 39.7674 101.938 39.8488 101.755Z" fill="#B5FFE1"/>
<path d="M52.7972 84.7101L35.1234 72.2925L37.3827 69.0769L55.0565 81.4944L52.7972 84.7101Z" fill="#B5FFE1"/>
<path d="M60.4104 74.667C59.6439 75.5108 58.6815 75.9605 57.5231 76.0161C56.3648 76.0716 55.3637 75.7161 54.5199 74.9496L44.7051 66.0334C43.8613 65.2669 43.4117 64.3045 43.3561 63.1461C43.3005 61.9878 43.656 60.9868 44.4226 60.143L53.3186 50.3505C54.0986 49.4919 55.0678 49.0348 56.2261 48.9792C57.3844 48.9236 58.3855 49.2791 59.2293 50.0457L60.4728 51.1753L57.7899 54.1286L57.1903 53.584C56.7758 53.2074 56.5195 53.0286 56.4213 53.0475C56.3083 53.0529 56.0702 53.2554 55.7071 53.6551L47.9407 62.2041C47.5642 62.6186 47.3786 62.8824 47.384 62.9954C47.3881 63.0802 47.5974 63.3108 48.0119 63.6874L56.5387 71.4335C56.9532 71.8101 57.2103 72.003 57.3098 72.0124C57.408 71.9935 57.6454 71.7769 58.022 71.3624L65.7884 62.8133C66.1515 62.4136 66.3377 62.164 66.3471 62.0645C66.3417 61.9515 66.1317 61.7067 65.7172 61.3301L63.3412 59.1717L60.0531 62.7911L57.0998 60.1082L63.0708 53.5355L69.0441 58.9618C69.8879 59.7284 70.3376 60.6908 70.3931 61.8491C70.4487 63.0074 70.0865 64.0159 69.3065 64.8745L60.4104 74.667Z" fill="#B5FFE1"/>
<path d="M76.1064 59.2193C75.2021 59.9135 74.1751 60.1851 73.0253 60.0341C71.8756 59.883 70.9536 59.3554 70.2593 58.4511L59.645 44.6257L62.7861 42.2142L72.8706 55.3495C73.2116 55.7937 73.4303 56.0292 73.5266 56.0562C73.6266 56.055 73.8987 55.884 74.3429 55.5429L83.5042 48.5093C83.9325 48.1805 84.1602 47.9679 84.1871 47.8716C84.2018 47.7594 84.0387 47.4812 83.6977 47.037L73.6131 33.9017L76.778 31.4719L87.3923 45.2973C88.0865 46.2016 88.3581 47.2286 88.207 48.3783C88.056 49.5281 87.5283 50.4501 86.6241 51.1444L76.1064 59.2193Z" fill="#B5FFE1"/>
<path d="M90.577 48.6224L80.8474 29.3378L84.7311 27.3783L95.9244 32.1812L98.6856 20.3379L102.596 18.365L112.326 37.6496L108.763 39.4468L101.628 25.3048L98.7081 37.6988L86.9909 32.7234L94.1125 46.8386L90.577 48.6224Z" fill="#B5FFE1"/>
<path d="M112.673 38.1581L107.91 21.3915C107.599 20.2949 107.725 19.2402 108.29 18.2273C108.855 17.2144 109.685 16.5522 110.782 16.2407L123.509 12.6254C124.624 12.3084 125.689 12.4323 126.702 12.997C127.714 13.5617 128.377 14.3923 128.688 15.489L133.451 32.2556L129.613 33.3459L127.629 26.3622L114.499 30.0923L116.483 37.076L112.673 38.1581ZM113.417 26.283L126.547 22.5529L125.088 17.4162C124.935 16.8775 124.812 16.5902 124.718 16.5544C124.619 16.4993 124.31 16.5455 123.791 16.6931L112.68 19.8493C112.142 20.0023 111.845 20.1282 111.79 20.2271C111.748 20.3012 111.804 20.6076 111.957 21.1463L113.417 26.283Z" fill="#B5FFE1"/>
<path d="M153.565 31.1034L153.355 13.4947L144.536 13.5997L144.488 9.60996L166.087 9.35282L166.134 13.3425L157.345 13.4472L157.554 31.0559L153.565 31.1034Z" fill="#B5FFE1"/>
<path d="M170.47 32.0285C169.345 31.8461 168.443 31.2845 167.765 30.3439C167.087 29.4032 166.839 28.3703 167.022 27.2449L169.143 14.1558C169.326 13.0305 169.887 12.1288 170.828 11.4505C171.769 10.7723 172.802 10.5244 173.927 10.7069L187.016 12.8288C188.141 13.0112 189.043 13.5727 189.721 14.5134C190.4 15.454 190.648 16.487 190.465 17.6123L188.343 30.7015C188.161 31.8268 187.599 32.7285 186.659 33.4067C185.718 34.0849 184.685 34.3328 183.56 34.1504L170.47 32.0285ZM171.938 28.2243L183.339 30.0726C183.872 30.159 184.183 30.179 184.272 30.1326C184.363 30.0664 184.454 29.757 184.544 29.2042L186.387 17.8326C186.477 17.2798 186.487 16.9674 186.418 16.8954C186.351 16.8036 186.052 16.7145 185.519 16.6281L174.118 14.7799C173.565 14.6903 173.243 14.6785 173.151 14.7447C173.082 14.7943 173.003 15.0955 172.913 15.6483L171.07 27.0199C170.98 27.5726 170.958 27.8933 171.005 27.9819C171.074 28.0539 171.385 28.1347 171.938 28.2243Z" fill="#B5FFE1"/>
<path d="M188.209 35.4458L195.337 15.0559L199.104 16.3726L196.203 24.6702L200.989 26.3433L210.856 20.4811L214.934 21.9068L214.558 22.9829L203.724 29.4287L208.211 41.2305L207.835 42.3066L203.728 40.8711L199.672 30.1097L194.886 28.4366L191.976 36.7625L188.209 35.4458Z" fill="#B5FFE1"/>
<path d="M208.264 43.0141L218.732 24.1203L236.13 33.7598L234.196 37.2499L220.288 29.5441L217.962 33.7427L229.141 39.9365L227.207 43.4266L216.028 37.2328L213.688 41.4577L227.596 49.1635L225.662 52.6536L208.264 43.0141Z" fill="#B5FFE1"/>
<path d="M226.013 53.3287L239.571 36.5137L242.957 39.2441L243.375 59.8514L253.28 47.5672L256.386 50.0716L242.828 66.8866L239.441 64.1562L239.019 43.5067L229.096 55.8143L226.013 53.3287Z" fill="#B5FFE1"/>
<path d="M267.641 72.0913C267.773 72.267 267.817 72.459 267.774 72.667C267.758 72.8791 267.662 73.0512 267.487 73.1835C267.327 73.3038 267.135 73.3481 266.911 73.3165C266.699 73.3009 266.527 73.2052 266.394 73.0294C266.274 72.8696 266.23 72.6777 266.261 72.4536C266.293 72.2296 266.389 72.0574 266.548 71.9371C266.724 71.8048 266.916 71.7605 267.124 71.8042C267.348 71.8358 267.52 71.9315 267.641 72.0913ZM265.694 70.4026C265.826 70.5784 265.87 70.7703 265.827 70.9784C265.811 71.1904 265.715 71.3625 265.54 71.4948C265.38 71.6151 265.188 71.6594 264.964 71.6278C264.752 71.6122 264.58 71.5165 264.447 71.3407C264.327 71.1809 264.283 70.989 264.314 70.7649C264.346 70.5409 264.442 70.3687 264.602 70.2484C264.777 70.1161 264.969 70.0718 265.177 70.1155C265.401 70.1471 265.573 70.2428 265.694 70.4026ZM268.725 74.4294C268.857 74.6052 268.901 74.7971 268.858 75.0052C268.842 75.2172 268.746 75.3894 268.57 75.5217C268.411 75.642 268.219 75.6863 267.995 75.6547C267.783 75.639 267.611 75.5433 267.478 75.3676C267.358 75.2078 267.314 75.0158 267.345 74.7918C267.377 74.5677 267.473 74.3956 267.632 74.2753C267.808 74.143 268 74.0987 268.208 74.1423C268.432 74.1739 268.604 74.2696 268.725 74.4294ZM262.14 69.3226C262.316 69.1903 262.508 69.146 262.716 69.1896C262.94 69.2213 263.112 69.317 263.232 69.4768C263.364 69.6525 263.409 69.8445 263.365 70.0525C263.35 70.2646 263.254 70.4367 263.078 70.569C262.918 70.6893 262.726 70.7336 262.502 70.702C262.29 70.6864 262.118 70.5907 261.986 70.4149C261.866 70.2551 261.821 70.0632 261.853 69.8391C261.884 69.6151 261.98 69.4429 262.14 69.3226ZM267.841 76.8969C268.017 76.7646 268.209 76.7203 268.417 76.764C268.641 76.7956 268.813 76.8913 268.933 77.0511C269.065 77.2269 269.11 77.4188 269.066 77.6269C269.05 77.8389 268.955 78.011 268.779 78.1433C268.619 78.2636 268.427 78.3079 268.203 78.2763C267.991 78.2607 267.819 78.165 267.687 77.9892C267.566 77.8294 267.522 77.6375 267.554 77.4134C267.585 77.1894 267.681 77.0172 267.841 76.8969ZM259.518 69.5311C259.694 69.3988 259.886 69.3545 260.094 69.3981C260.318 69.4297 260.49 69.5254 260.611 69.6852C260.743 69.861 260.787 70.0529 260.744 70.261C260.728 70.473 260.632 70.6452 260.456 70.7775C260.297 70.8978 260.105 70.9421 259.881 70.9105C259.669 70.8948 259.496 70.7991 259.364 70.6233C259.244 70.4635 259.2 70.2716 259.231 70.0476C259.263 69.8235 259.358 69.6513 259.518 69.5311ZM266.915 79.3585C267.091 79.2262 267.283 79.1819 267.491 79.2255C267.715 79.2572 267.887 79.3529 268.007 79.5127C268.14 79.6884 268.184 79.8804 268.14 80.0884C268.125 80.3005 268.029 80.4726 267.853 80.6049C267.693 80.7252 267.501 80.7695 267.277 80.7379C267.065 80.7223 266.893 80.6266 266.761 80.4508C266.641 80.291 266.596 80.0991 266.628 79.875C266.659 79.6509 266.755 79.4788 266.915 79.3585ZM257.18 70.6151C257.356 70.4828 257.548 70.4384 257.756 70.4821C257.98 70.5137 258.152 70.6094 258.272 70.7692C258.405 70.945 258.449 71.1369 258.405 71.345C258.39 71.557 258.294 71.7292 258.118 71.8615C257.958 71.9817 257.767 72.0261 257.542 71.9944C257.33 71.9788 257.158 71.8831 257.026 71.7073C256.906 71.5475 256.861 71.3556 256.893 71.1315C256.925 70.9075 257.02 70.7353 257.18 70.6151ZM265.226 81.3054C265.402 81.1731 265.594 81.1288 265.802 81.1724C266.026 81.204 266.198 81.2997 266.319 81.4595C266.451 81.6353 266.495 81.8272 266.452 82.0353C266.436 82.2473 266.34 82.4195 266.164 82.5518C266.005 82.6721 265.813 82.7164 265.589 82.6848C265.377 82.6691 265.204 82.5734 265.072 82.3976C264.952 82.2379 264.908 82.0459 264.939 81.8219C264.971 81.5978 265.067 81.4257 265.226 81.3054ZM255.491 72.5619C255.667 72.4296 255.859 72.3853 256.067 72.4289C256.291 72.4606 256.463 72.5563 256.584 72.7161C256.716 72.8918 256.76 73.0838 256.717 73.2918C256.701 73.5039 256.605 73.676 256.43 73.8083C256.27 73.9286 256.078 73.9729 255.854 73.9413C255.642 73.9257 255.47 73.83 255.337 73.6542C255.217 73.4944 255.173 73.3025 255.204 73.0784C255.236 72.8544 255.332 72.6822 255.491 72.5619ZM262.888 82.3894C263.064 82.2571 263.256 82.2127 263.464 82.2564C263.688 82.288 263.86 82.3837 263.98 82.5435C264.113 82.7193 264.157 82.9112 264.113 83.1193C264.098 83.3313 264.002 83.5035 263.826 83.6358C263.666 83.756 263.475 83.8004 263.25 83.7687C263.038 83.7531 262.866 83.6574 262.734 83.4816C262.614 83.3218 262.569 83.1299 262.601 82.9058C262.633 82.6818 262.728 82.5096 262.888 82.3894ZM254.566 75.0235C254.741 74.8912 254.933 74.8469 255.141 74.8905C255.365 74.9221 255.538 75.0178 255.658 75.1776C255.79 75.3534 255.834 75.5453 255.791 75.7534C255.775 75.9654 255.679 76.1376 255.504 76.2699C255.344 76.3902 255.152 76.4345 254.928 76.4029C254.716 76.3872 254.544 76.2915 254.411 76.1158C254.291 75.956 254.247 75.764 254.278 75.54C254.31 75.3159 254.406 75.1438 254.566 75.0235ZM260.266 82.5978C260.442 82.4655 260.634 82.4212 260.842 82.4648C261.066 82.4965 261.238 82.5922 261.359 82.752C261.491 82.9277 261.535 83.1197 261.492 83.3277C261.476 83.5398 261.38 83.7119 261.205 83.8442C261.045 83.9645 260.853 84.0088 260.629 83.9772C260.417 83.9616 260.245 83.8659 260.112 83.6901C259.992 83.5303 259.948 83.3384 259.979 83.1143C260.011 82.8903 260.107 82.7181 260.266 82.5978ZM255.866 77.7993C255.999 77.9751 256.043 78.167 255.999 78.3751C255.984 78.5871 255.888 78.7593 255.712 78.8916C255.552 79.0118 255.36 79.0562 255.136 79.0245C254.924 79.0089 254.752 78.9132 254.62 78.7374C254.5 78.5776 254.455 78.3857 254.487 78.1616C254.519 77.9376 254.614 77.7654 254.774 77.6451C254.95 77.5128 255.142 77.4685 255.35 77.5122C255.574 77.5438 255.746 77.6395 255.866 77.7993ZM258.897 81.8261C259.029 82.0019 259.074 82.1938 259.03 82.4019C259.015 82.6139 258.919 82.7861 258.743 82.9184C258.583 83.0387 258.391 83.083 258.167 83.0514C257.955 83.0357 257.783 82.94 257.651 82.7643C257.53 82.6045 257.486 82.4125 257.518 82.1885C257.549 81.9644 257.645 81.7923 257.805 81.672C257.981 81.5397 258.173 81.4954 258.381 81.539C258.605 81.5706 258.777 81.6663 258.897 81.8261ZM256.95 80.1375C257.083 80.3132 257.127 80.5052 257.083 80.7132C257.068 80.9253 256.972 81.0974 256.796 81.2297C256.636 81.35 256.444 81.3943 256.22 81.3627C256.008 81.3471 255.836 81.2513 255.704 81.0756C255.584 80.9158 255.539 80.7238 255.571 80.4998C255.603 80.2757 255.698 80.1036 255.858 79.9833C256.034 79.851 256.226 79.8067 256.434 79.8503C256.658 79.8819 256.83 79.9777 256.95 80.1375Z" fill="#B5FFE1"/>
<path d="M265.572 99.7297L285.005 90.3004L286.721 93.8362L267.288 103.265L265.572 99.7297Z" fill="#B5FFE1"/>
<path d="M270.66 111.259C270.295 110.18 270.368 109.12 270.882 108.08C271.395 107.04 272.192 106.338 273.271 105.972L285.83 101.716C286.909 101.35 287.969 101.424 289.009 101.937C290.049 102.45 290.752 103.247 291.118 104.327L295.364 116.857C295.736 117.955 295.666 119.024 295.152 120.064C294.639 121.104 293.842 121.807 292.763 122.173L291.172 122.712L289.891 118.933L290.658 118.673C291.188 118.493 291.469 118.356 291.5 118.261C291.55 118.16 291.489 117.853 291.315 117.342L287.608 106.403C287.429 105.872 287.288 105.582 287.187 105.532C287.11 105.495 286.807 105.566 286.277 105.745L275.366 109.443C274.836 109.623 274.543 109.754 274.486 109.836C274.455 109.931 274.529 110.244 274.709 110.774L278.416 121.713C278.589 122.225 278.717 122.509 278.8 122.565C278.901 122.615 279.217 122.55 279.748 122.371L282.788 121.34L281.218 116.709L284.997 115.428L287.847 123.839L280.204 126.429C279.125 126.795 278.065 126.721 277.025 126.208C275.985 125.694 275.279 124.888 274.907 123.79L270.66 111.259Z" fill="#B5FFE1"/>
<path d="M276.552 132.479C276.384 131.352 276.644 130.322 277.334 129.39C278.024 128.458 278.933 127.907 280.061 127.739L297.3 125.166L297.884 129.082L281.506 131.527C280.952 131.61 280.64 131.687 280.57 131.758C280.522 131.846 280.54 132.167 280.622 132.721L282.327 144.144C282.407 144.678 282.483 144.98 282.554 145.051C282.645 145.118 282.967 145.11 283.521 145.028L299.899 142.583L300.489 146.529L283.25 149.102C282.122 149.271 281.092 149.01 280.16 148.32C279.228 147.63 278.678 146.721 278.51 145.594L276.552 132.479Z" fill="#B5FFE1"/>
<path d="M278.797 150.274L300.38 151.124L300.209 155.47L290.578 162.927L299.595 171.088L299.422 175.465L277.839 174.616L277.996 170.629L293.824 171.251L284.403 162.684L294.439 154.853L278.641 154.231L278.797 150.274Z" fill="#B5FFE1"/>
<path d="M277.226 174.673L294.198 178.643C295.308 178.902 296.169 179.525 296.781 180.51C297.392 181.495 297.568 182.543 297.309 183.653L294.295 196.535C294.031 197.665 293.406 198.535 292.421 199.147C291.436 199.759 290.388 199.935 289.278 199.675L272.306 195.705L273.215 191.82L280.284 193.473L283.393 180.182L276.324 178.528L277.226 174.673ZM287.249 181.084L284.14 194.375L289.34 195.592C289.885 195.719 290.196 195.751 290.273 195.687C290.369 195.627 290.478 195.334 290.601 194.808L293.232 183.562C293.36 183.017 293.394 182.696 293.334 182.6C293.289 182.528 292.994 182.428 292.449 182.301L287.249 181.084Z" fill="#B5FFE1"/>
<path d="M263.555 213.851L279.054 222.212L283.241 214.449L286.753 216.343L276.498 235.354L272.986 233.46L277.159 225.723L261.66 217.363L263.555 213.851Z" fill="#B5FFE1"/>
<path d="M254.543 228.184C255.248 227.289 256.177 226.773 257.329 226.636C258.48 226.5 259.504 226.784 260.399 227.49L270.815 235.696C271.71 236.401 272.226 237.33 272.363 238.481C272.5 239.633 272.215 240.657 271.51 241.552L263.303 251.968C262.598 252.863 261.669 253.379 260.518 253.516C259.366 253.652 258.343 253.368 257.447 252.662L247.032 244.456C246.136 243.751 245.62 242.822 245.483 241.671C245.347 240.519 245.631 239.496 246.337 238.6L254.543 228.184ZM257.157 231.314L250.009 240.386C249.675 240.81 249.507 241.072 249.504 241.172C249.518 241.285 249.744 241.514 250.184 241.861L259.233 248.99C259.673 249.337 259.941 249.497 260.038 249.471C260.15 249.458 260.374 249.239 260.708 248.815L267.856 239.743C268.202 239.303 268.369 239.027 268.356 238.914C268.346 238.83 268.121 238.615 267.681 238.268L258.632 231.139C258.192 230.792 257.922 230.618 257.822 230.615C257.725 230.641 257.504 230.874 257.157 231.314Z" fill="#B5FFE1"/>
<path d="M242.949 242.038L257.319 258.164L254.34 260.818L248.492 254.256L244.707 257.629L245.045 269.101L241.82 271.976L241.062 271.124L240.682 258.524L228.186 256.721L227.427 255.87L230.675 252.976L242.053 254.65L245.838 251.277L239.97 244.692L242.949 242.038Z" fill="#B5FFE1"/>
<path d="M226.6 255.901L238.042 274.222L221.172 284.758L219.058 281.373L232.544 272.951L230.002 268.88L219.162 275.65L217.048 272.265L227.888 265.496L225.33 261.399L211.844 269.821L209.73 266.437L226.6 255.901Z" fill="#B5FFE1"/>
<path d="M208.969 266.417L217.094 286.431L213.064 288.067L194.842 278.434L200.777 293.055L197.08 294.555L188.955 274.542L192.986 272.906L211.247 282.555L205.3 267.907L208.969 266.417Z" fill="#B5FFE1"/>
<path d="M172.366 293.713C172.148 293.743 171.959 293.689 171.798 293.55C171.62 293.433 171.516 293.266 171.486 293.048C171.458 292.85 171.512 292.661 171.649 292.48C171.765 292.302 171.932 292.198 172.15 292.168C172.348 292.14 172.538 292.194 172.718 292.331C172.899 292.467 173.003 292.634 173.031 292.832C173.061 293.05 173.007 293.24 172.868 293.4C172.731 293.581 172.564 293.685 172.366 293.713ZM174.787 292.83C174.569 292.86 174.38 292.806 174.219 292.667C174.041 292.55 173.937 292.383 173.907 292.165C173.879 291.967 173.934 291.778 174.07 291.597C174.186 291.419 174.354 291.315 174.572 291.285C174.77 291.257 174.959 291.311 175.14 291.448C175.32 291.584 175.424 291.751 175.452 291.949C175.482 292.167 175.428 292.357 175.289 292.517C175.152 292.698 174.985 292.802 174.787 292.83ZM169.795 293.526C169.578 293.557 169.388 293.502 169.227 293.363C169.05 293.246 168.946 293.079 168.915 292.861C168.887 292.663 168.942 292.474 169.078 292.293C169.195 292.116 169.362 292.011 169.58 291.981C169.778 291.953 169.967 292.008 170.148 292.144C170.328 292.281 170.433 292.448 170.46 292.646C170.491 292.864 170.436 293.053 170.297 293.214C170.161 293.394 169.994 293.498 169.795 293.526ZM177.456 290.246C177.486 290.464 177.432 290.653 177.293 290.814C177.156 290.995 176.989 291.099 176.791 291.126C176.573 291.157 176.384 291.103 176.223 290.963C176.045 290.847 175.941 290.68 175.911 290.462C175.883 290.264 175.937 290.074 176.074 289.894C176.19 289.716 176.358 289.612 176.575 289.581C176.773 289.554 176.963 289.608 177.143 289.745C177.324 289.881 177.428 290.048 177.456 290.246ZM168.067 291.556C168.097 291.774 168.043 291.963 167.904 292.124C167.767 292.305 167.6 292.409 167.402 292.436C167.184 292.467 166.995 292.412 166.834 292.273C166.656 292.157 166.552 291.99 166.522 291.772C166.494 291.574 166.548 291.384 166.685 291.204C166.801 291.026 166.968 290.922 167.186 290.891C167.384 290.864 167.574 290.918 167.754 291.054C167.935 291.191 168.039 291.358 168.067 291.556ZM178.545 287.853C178.576 288.071 178.521 288.26 178.382 288.421C178.246 288.601 178.079 288.705 177.881 288.733C177.663 288.763 177.473 288.709 177.313 288.57C177.135 288.453 177.031 288.286 177 288.068C176.973 287.87 177.027 287.681 177.163 287.5C177.28 287.322 177.447 287.218 177.665 287.188C177.863 287.16 178.053 287.215 178.233 287.351C178.414 287.487 178.518 287.655 178.545 287.853ZM166.363 289.552C166.394 289.77 166.339 289.959 166.2 290.12C166.064 290.301 165.897 290.405 165.699 290.432C165.481 290.463 165.291 290.409 165.131 290.269C164.953 290.153 164.849 289.986 164.818 289.768C164.791 289.57 164.845 289.38 164.981 289.2C165.098 289.022 165.265 288.918 165.483 288.887C165.681 288.86 165.871 288.914 166.051 289.051C166.232 289.187 166.336 289.354 166.363 289.552ZM178.732 285.282C178.762 285.5 178.708 285.689 178.569 285.85C178.433 286.031 178.265 286.135 178.067 286.163C177.849 286.193 177.66 286.139 177.499 285.999C177.322 285.883 177.217 285.716 177.187 285.498C177.159 285.3 177.214 285.11 177.35 284.93C177.467 284.752 177.634 284.648 177.852 284.617C178.05 284.59 178.239 284.644 178.42 284.781C178.6 284.917 178.704 285.084 178.732 285.282ZM165.48 287.131C165.511 287.349 165.456 287.538 165.317 287.699C165.181 287.88 165.014 287.984 164.816 288.011C164.598 288.042 164.408 287.987 164.248 287.848C164.07 287.732 163.966 287.564 163.935 287.347C163.908 287.148 163.962 286.959 164.098 286.779C164.215 286.601 164.382 286.497 164.6 286.466C164.798 286.439 164.988 286.493 165.168 286.629C165.349 286.766 165.453 286.933 165.48 287.131ZM177.849 282.861C177.879 283.079 177.825 283.268 177.686 283.429C177.55 283.61 177.382 283.714 177.184 283.741C176.966 283.772 176.777 283.717 176.616 283.578C176.439 283.462 176.334 283.294 176.304 283.077C176.276 282.878 176.331 282.689 176.467 282.509C176.584 282.331 176.751 282.227 176.969 282.196C177.167 282.169 177.356 282.223 177.537 282.359C177.717 282.496 177.821 282.663 177.849 282.861ZM165.667 284.561C165.697 284.778 165.643 284.968 165.504 285.129C165.368 285.309 165.2 285.413 165.002 285.441C164.784 285.471 164.595 285.417 164.434 285.278C164.256 285.161 164.152 284.994 164.122 284.776C164.094 284.578 164.149 284.389 164.285 284.208C164.402 284.03 164.569 283.926 164.787 283.896C164.985 283.868 165.174 283.923 165.355 284.059C165.535 284.195 165.639 284.362 165.667 284.561ZM176.146 280.857C176.176 281.075 176.122 281.264 175.983 281.425C175.846 281.606 175.679 281.71 175.481 281.737C175.263 281.768 175.074 281.713 174.913 281.574C174.735 281.458 174.631 281.291 174.601 281.073C174.573 280.875 174.628 280.685 174.764 280.505C174.88 280.327 175.048 280.223 175.266 280.192C175.464 280.165 175.653 280.219 175.834 280.355C176.014 280.492 176.118 280.659 176.146 280.857ZM166.757 282.167C166.787 282.385 166.733 282.574 166.594 282.735C166.457 282.916 166.29 283.02 166.092 283.047C165.874 283.078 165.685 283.023 165.524 282.884C165.346 282.768 165.242 282.6 165.212 282.383C165.184 282.184 165.238 281.995 165.375 281.815C165.491 281.637 165.659 281.533 165.876 281.502C166.075 281.475 166.264 281.529 166.444 281.665C166.625 281.802 166.729 281.969 166.757 282.167ZM173.088 280.648C172.87 280.678 172.68 280.624 172.52 280.485C172.342 280.368 172.238 280.201 172.207 279.983C172.18 279.785 172.234 279.596 172.37 279.415C172.487 279.237 172.654 279.133 172.872 279.103C173.07 279.075 173.259 279.129 173.44 279.266C173.621 279.402 173.725 279.569 173.752 279.767C173.783 279.985 173.728 280.175 173.589 280.335C173.453 280.516 173.286 280.62 173.088 280.648ZM168.096 281.344C167.878 281.374 167.689 281.32 167.528 281.181C167.35 281.064 167.246 280.897 167.216 280.679C167.188 280.481 167.242 280.292 167.379 280.111C167.495 279.934 167.662 279.829 167.88 279.799C168.078 279.771 168.268 279.826 168.448 279.962C168.629 280.098 168.733 280.266 168.761 280.464C168.791 280.682 168.737 280.871 168.598 281.032C168.461 281.212 168.294 281.316 168.096 281.344ZM170.517 280.461C170.299 280.491 170.11 280.437 169.949 280.298C169.771 280.181 169.667 280.014 169.637 279.796C169.609 279.598 169.664 279.409 169.8 279.228C169.916 279.051 170.084 278.946 170.302 278.916C170.5 278.888 170.689 278.943 170.87 279.079C171.05 279.215 171.154 279.383 171.182 279.581C171.212 279.799 171.158 279.988 171.019 280.149C170.882 280.329 170.715 280.433 170.517 280.461Z" fill="#B5FFE1"/>
</svg>
