<svg width="263" height="211" viewBox="0 0 263 211" fill="none" xmlns="http://www.w3.org/2000/svg">
    <path
        d="M52.9991 115V98.35C52.9991 97.79 52.9591 97.48 52.8791 97.42C52.8191 97.34 52.5091 97.3 51.9491 97.3H38.9591V93.37H52.7891C53.9291 93.37 54.8991 93.78 55.6991 94.6C56.5191 95.4 56.9291 96.37 56.9291 97.51V115H52.9991ZM60.2937 118.96V111.31H64.2237V114.82C64.2237 115.82 63.8437 116.7 63.0837 117.46C62.3437 118.24 61.4137 118.74 60.2937 118.96ZM71.2306 115C70.2306 115 69.3406 114.62 68.5606 113.86C67.7806 113.1 67.2806 112.17 67.0606 111.07H83.5006C84.0406 111.07 84.3506 111.04 84.4306 110.98C84.5106 110.9 84.5506 110.58 84.5506 110.02V107.38C84.5506 106.84 84.5106 106.54 84.4306 106.48C84.3506 106.4 84.0406 106.36 83.5006 106.36H71.2306C70.0706 106.36 69.0806 105.95 68.2606 105.13C67.4606 104.31 67.0606 103.33 67.0606 102.19V97.54C67.0606 96.38 67.4606 95.4 68.2606 94.6C69.0806 93.8 70.0706 93.4 71.2306 93.4H84.3406C85.4806 93.4 86.4506 93.8 87.2506 94.6C88.0706 95.4 88.4806 96.38 88.4806 97.54V110.86C88.4806 112 88.0706 112.98 87.2506 113.8C86.4506 114.6 85.4806 115 84.3406 115H71.2306ZM72.0706 102.4H84.5506V98.38C84.5506 97.82 84.5106 97.51 84.4306 97.45C84.3506 97.37 84.0406 97.33 83.5006 97.33H72.0706C71.5106 97.33 71.1906 97.37 71.1106 97.45C71.0506 97.51 71.0206 97.82 71.0206 98.38V101.35C71.0206 101.91 71.0506 102.23 71.1106 102.31C71.1906 102.37 71.5106 102.4 72.0706 102.4Z"
        fill="#B5FFE1" />
    <path
        d="M159.861 115L154.701 98.2H154.581C154.601 98.6 154.631 99.2 154.671 100C154.711 100.8 154.751 101.66 154.791 102.58C154.831 103.48 154.851 104.3 154.851 105.04V115H150.801V93.58H156.981L162.051 109.96H162.141L167.511 93.58H173.691V115H169.461V104.86C169.461 104.18 169.471 103.4 169.491 102.52C169.531 101.64 169.561 100.81 169.581 100.03C169.621 99.23 169.651 98.63 169.671 98.23H169.551L164.031 115H159.861ZM193.412 115H188.942V101.98H184.832C184.572 105.18 184.222 107.76 183.782 109.72C183.362 111.66 182.772 113.08 182.012 113.98C181.252 114.86 180.232 115.3 178.952 115.3C177.912 115.3 177.062 115.14 176.402 114.82V111.25C176.862 111.45 177.342 111.55 177.842 111.55C178.202 111.55 178.532 111.37 178.832 111.01C179.132 110.65 179.412 110 179.672 109.06C179.952 108.12 180.202 106.81 180.422 105.13C180.642 103.43 180.842 101.26 181.022 98.62H193.412V115ZM207.198 98.32C209.038 98.32 210.528 99.04 211.668 100.48C212.808 101.9 213.378 104 213.378 106.78C213.378 109.56 212.788 111.68 211.608 113.14C210.428 114.58 208.918 115.3 207.078 115.3C205.898 115.3 204.958 115.09 204.258 114.67C203.558 114.23 202.988 113.74 202.548 113.2H202.308C202.468 114.04 202.548 114.84 202.548 115.6V122.2H198.078V98.62H201.708L202.338 100.75H202.548C202.988 100.09 203.578 99.52 204.318 99.04C205.058 98.56 206.018 98.32 207.198 98.32ZM205.758 101.89C204.598 101.89 203.778 102.25 203.298 102.97C202.838 103.69 202.588 104.79 202.548 106.27V106.75C202.548 108.33 202.778 109.55 203.238 110.41C203.718 111.25 204.578 111.67 205.818 111.67C206.838 111.67 207.588 111.25 208.068 110.41C208.568 109.55 208.818 108.32 208.818 106.72C208.818 103.5 207.798 101.89 205.758 101.89ZM231.792 98.62V111.73H234.192V120.88H230.172V115H219.162V120.88H215.142V111.73H216.522C217.242 110.63 217.852 109.38 218.352 107.98C218.852 106.56 219.252 105.05 219.552 103.45C219.852 101.85 220.072 100.24 220.212 98.62H231.792ZM223.962 101.98C223.722 103.8 223.392 105.53 222.972 107.17C222.552 108.79 221.962 110.31 221.202 111.73H227.322V101.98H223.962Z"
        fill="#B5FFE1" />
    <path fill-rule="evenodd" clip-rule="evenodd"
        d="M34.7864 45.5856L104.359 45.5856L128.357 87.1623L120.177 101.334L96.1794 59.7572L42.966 59.7572L16.3594 105.854L42.966 151.952H96.1794L157.572 45.5856L191.628 45.5856V17.3209H183.757V0H202.647V17.3209H194.777V45.5856H227.145L251.174 87.216L242.887 101.203L218.965 59.7572L165.752 59.7572L104.359 166.123H73.5647V193.679H81.4356V211H62.5454V193.679H70.4163V166.123H34.7863L0 105.854L34.7864 45.5856ZM37.5129 50.3095L5.45312 105.854L37.5129 161.399H101.632L163.025 55.0333L221.692 55.0333L242.941 91.8474L245.703 87.185L224.419 50.3095L160.299 50.3095L98.9059 156.675H40.2395L10.9062 105.854L40.2395 55.0333L98.9059 55.0333L120.177 91.8862L122.903 87.1623L101.632 50.3094L37.5129 50.3095ZM78.2872 207.851H65.6938V196.828H78.2872V207.851ZM186.906 3.14925L199.499 3.14925V14.1716L186.906 14.1716V3.14925Z"
        fill="#7CCF9E" />
    <path fill-rule="evenodd" clip-rule="evenodd"
        d="M256.764 96.4165L256.773 96.4012L254.052 91.6878L254.043 91.7026L254.038 91.6936L252.227 94.823L218.971 151.952H165.752L141.681 110.247L133.501 124.418L157.572 166.123H227.139L261.725 106.71L262.227 105.881L262.217 105.864L262.227 105.848L259.505 101.135L259.496 101.15L256.764 96.4165ZM254.52 100.271L221.686 156.675H163.025L141.681 119.694L138.954 124.418L160.299 161.399H224.424L257.301 104.922L254.52 100.271Z"
        fill="#7CCF9E" />
</svg>