<svg width="61" height="140" viewBox="0 0 61 140" fill="none" xmlns="http://www.w3.org/2000/svg">
<path d="M56.3072 33.0337H5.07676C4.12531 33.0337 3.35498 33.804 3.35498 34.7555V109.892C3.35498 124.989 15.5939 137.228 30.6915 137.228C45.7901 137.228 58.029 124.989 58.029 109.891V34.7555C58.029 33.804 57.2576 33.0337 56.3072 33.0337ZM30.6915 128.296C23.6093 128.296 17.8676 122.555 17.8676 115.472C17.8676 108.39 23.6093 102.649 30.6915 102.649C37.7746 102.649 43.5153 108.39 43.5153 115.472C43.5153 122.556 37.7746 128.296 30.6915 128.296Z" fill="#65B891"/>
<path d="M53.8474 6.00814C53.8474 4.36414 52.5145 3.03125 50.8705 3.03125H10.513C8.86902 3.03125 7.53613 4.36414 7.53613 6.00814V33.0335H53.8474V6.00814ZM25.9217 22.0135C25.9217 22.6858 25.3762 23.2313 24.7039 23.2313H17.4694C16.796 23.2313 16.2516 22.6858 16.2516 22.0135V14.779C16.2516 14.1067 16.796 13.5612 17.4694 13.5612H24.7039C25.3762 13.5612 25.9217 14.1067 25.9217 14.779V22.0135ZM45.133 22.0135C45.133 22.6858 44.5875 23.2313 43.9151 23.2313H36.6807C36.0073 23.2313 35.4629 22.6858 35.4629 22.0135V14.779C35.4629 14.1067 36.0073 13.5612 36.6807 13.5612H43.9151C44.5875 13.5612 45.133 14.1067 45.133 14.779V22.0135Z" fill="#B5FFE1"/>
<path d="M24.7037 13.5613H17.4693C16.7959 13.5613 16.2515 14.1068 16.2515 14.7791V22.0136C16.2515 22.6859 16.7959 23.2314 17.4693 23.2314H24.7037C25.3761 23.2314 25.9216 22.6859 25.9216 22.0136V14.7791C25.9216 14.1068 25.3761 13.5613 24.7037 13.5613Z" fill="#B5FFE1"/>
<path d="M43.9147 13.5613H36.6802C36.0069 13.5613 35.4624 14.1068 35.4624 14.7791V22.0136C35.4624 22.6859 36.0069 23.2314 36.6802 23.2314H43.9147C44.587 23.2314 45.1325 22.6859 45.1325 22.0136V14.7791C45.1325 14.1068 44.587 13.5613 43.9147 13.5613Z" fill="#B5FFE1"/>
<path d="M43.5154 115.472C43.5154 122.555 37.7747 128.296 30.6915 128.296C23.6094 128.296 17.8677 122.555 17.8677 115.472C17.8677 108.39 23.6094 102.648 30.6915 102.648C37.7747 102.648 43.5154 108.39 43.5154 115.472Z" fill="#4E878C"/>
<path d="M56.5747 30.3198V6.00818C56.5747 2.86294 54.0154 0.303711 50.8702 0.303711H10.5138C7.3686 0.303711 4.8083 2.86294 4.8083 6.00818V30.3198C2.48027 30.4594 0.627441 32.3921 0.627441 34.7553V109.891C0.627441 126.469 14.114 139.955 30.6915 139.955C47.27 139.955 60.7566 126.469 60.7566 109.89V34.7553C60.7566 32.3921 58.9038 30.4594 56.5747 30.3198ZM10.2634 6.00818C10.2634 5.87073 10.3753 5.75886 10.5128 5.75886H50.8702C51.0076 5.75886 51.1195 5.87073 51.1195 6.00818V30.306H10.2634V6.00818ZM55.3014 109.89C55.3014 123.46 44.2612 134.5 30.6915 134.5C17.1218 134.5 6.08259 123.46 6.08259 109.89V35.7611H55.3014V109.89Z" fill="black"/>
<path d="M24.7038 10.8335H17.4693C15.2937 10.8335 13.5239 12.6032 13.5239 14.7789V22.0134C13.5239 24.189 15.2937 25.9587 17.4693 25.9587H24.7038C26.8794 25.9587 28.6492 24.189 28.6492 22.0134V14.7789C28.6492 12.6032 26.8794 10.8335 24.7038 10.8335ZM23.194 20.5036H18.9791V16.2886H23.194V20.5036Z" fill="black"/>
<path d="M43.9152 10.8335H36.6807C34.5051 10.8335 32.7354 12.6032 32.7354 14.7789V22.0134C32.7354 24.189 34.5051 25.9587 36.6807 25.9587H43.9152C46.0909 25.9587 47.8606 24.189 47.8606 22.0134V14.7789C47.8606 12.6032 46.0909 10.8335 43.9152 10.8335ZM42.4055 20.5036H38.1905V16.2886H42.4055V20.5036Z" fill="black"/>
<path d="M42.6801 110.151C41.2066 110.461 40.2626 111.907 40.5726 113.382C40.7154 114.065 40.7889 114.768 40.7889 115.472C40.7889 121.039 36.2597 125.569 30.6916 125.569C25.1245 125.569 20.5953 121.039 20.5953 115.472C20.5953 109.905 25.1245 105.376 30.6916 105.376C32.1981 105.376 33.4191 104.154 33.4191 102.648C33.4191 101.142 32.1981 99.9209 30.6916 99.9209C22.1168 99.9209 15.1401 106.898 15.1401 115.472C15.1401 124.047 22.1168 131.024 30.6916 131.024C39.2674 131.024 46.2441 124.048 46.2441 115.472C46.2441 114.392 46.1311 113.312 45.9106 112.26C45.6005 110.786 44.1568 109.842 42.6801 110.151Z" fill="black"/>
<path d="M39.0025 103.028C37.497 103.028 36.2749 104.25 36.2749 105.755V105.763C36.2749 107.268 37.497 108.486 39.0025 108.486C40.509 108.486 41.7301 107.262 41.7301 105.755C41.7301 104.249 40.509 103.028 39.0025 103.028Z" fill="black"/>
<path d="M41.3315 66.5966V60.7328C41.3315 54.8147 36.4759 49.9995 30.5079 49.9995C24.54 49.9995 19.6844 54.8147 19.6844 60.7329V66.5967C17.7861 66.9797 16.354 68.6476 16.354 70.6406V85.5022C16.3541 87.7777 18.2207 89.6304 20.517 89.6304H40.4989C42.7952 89.6304 44.6618 87.7777 44.6618 85.5022V70.6406C44.6618 68.6475 43.2298 66.9797 41.3315 66.5966ZM32.3546 79.2768L32.9974 83.7337C33.0324 83.9715 32.9608 84.2109 32.8026 84.3909C32.6444 84.5709 32.4146 84.6766 32.1732 84.6766H28.8428C28.6014 84.6766 28.3716 84.5726 28.2134 84.3926C28.0552 84.2127 27.9836 83.9716 28.0185 83.7354L28.6613 79.2786C27.2692 78.5883 26.3451 77.1632 26.3451 75.5945C26.3451 73.3191 28.2117 71.4663 30.5079 71.4663C32.8041 71.4663 34.6708 73.3191 34.6708 75.5945C34.6708 77.1632 33.7467 78.5883 32.3546 79.2768ZM36.336 66.5124H24.6798V60.7328C24.6798 57.5459 27.2942 54.9534 30.5079 54.9534C33.7217 54.9534 36.336 57.5459 36.336 60.7329V66.5124Z" fill="black"/>
</svg>
