<svg width="120" height="140" viewBox="0 0 120 140" fill="none" xmlns="http://www.w3.org/2000/svg">
<path d="M86.7204 116.039H34.2785C29.1973 116.039 25.0781 111.92 25.0781 106.839V10.9252C25.0781 5.84408 29.1973 1.72485 34.2785 1.72485H86.7204C91.8015 1.72485 95.9207 5.84408 95.9207 10.9252V106.839C95.9207 111.92 91.8015 116.039 86.7204 116.039Z" fill="#275654"/>
<path d="M86.7206 1.72485H79.8203C84.9014 1.72485 89.0207 5.84408 89.0207 10.9252V106.839C89.0207 111.92 84.9014 116.039 79.8203 116.039H86.7206C91.8017 116.039 95.9209 111.92 95.9209 106.839V10.9252C95.9209 5.84408 91.8017 1.72485 86.7206 1.72485Z" fill="#00241B"/>
<path d="M77.3941 10.4651C77.3941 12.1823 76.0019 13.5746 74.2847 13.5746H46.7142C44.997 13.5746 43.6048 12.1823 43.6048 10.4651C43.6048 9.44889 42.7809 8.625 41.7647 8.625H35.4286C33.5233 8.625 31.9785 10.1697 31.9785 12.0751V105.689C31.9785 107.594 33.5233 109.139 35.4286 109.139H85.5705C87.4759 109.139 89.0206 107.594 89.0206 105.689V12.0751C89.0206 10.1697 87.4759 8.625 85.5705 8.625H79.2344C78.218 8.625 77.3941 9.44889 77.3941 10.4651Z" fill="#B5FFE1"/>
<path d="M23.2307 54.0612C34.2147 54.0612 43.119 45.1568 43.119 34.1728C43.119 23.1888 34.2147 14.2844 23.2307 14.2844C12.2466 14.2844 3.34229 23.1888 3.34229 34.1728C3.34229 45.1568 12.2466 54.0612 23.2307 54.0612Z" fill="#6BBE95"/>
<path d="M23.2309 14.2842C22.0535 14.2842 20.9021 14.3923 19.7808 14.5885C29.1193 16.2227 36.219 24.3659 36.219 34.1726C36.219 43.9792 29.1193 52.1222 19.7808 53.7566C20.9021 53.9528 22.0535 54.0609 23.2309 54.0609C34.2149 54.0609 43.1193 45.1566 43.1193 34.1726C43.1193 23.1885 34.2147 14.2842 23.2309 14.2842Z" fill="#6BBE95"/>
<path d="M21.9899 100.997C32.974 100.997 41.8783 92.0931 41.8783 81.1091C41.8783 70.125 32.974 61.2207 21.9899 61.2207C11.0059 61.2207 2.10156 70.125 2.10156 81.1091C2.10156 92.0931 11.0059 100.997 21.9899 100.997Z" fill="#93E5AB"/>
<path d="M21.9902 61.2205C20.7323 61.2205 19.5036 61.3426 18.3105 61.5659C27.5357 63.2926 34.5192 71.3827 34.5192 81.1088C34.5192 90.835 27.5357 98.9253 18.3105 100.652C19.5036 100.875 20.7323 100.997 21.9902 100.997C32.9743 100.997 41.8786 92.0929 41.8786 81.1088C41.8786 70.1248 32.974 61.2205 21.9902 61.2205Z" fill="#93E5AB"/>
<path d="M97.7687 100.997C108.753 100.997 117.657 92.0931 117.657 81.1091C117.657 70.125 108.753 61.2207 97.7687 61.2207C86.7847 61.2207 77.8804 70.125 77.8804 81.1091C77.8804 92.0931 86.7847 100.997 97.7687 100.997Z" fill="#6BBE95"/>
<path d="M97.7685 61.2205C96.5911 61.2205 95.4397 61.3286 94.3184 61.5248C103.657 63.1592 110.757 71.3022 110.757 81.1088C110.757 90.9155 103.657 99.0585 94.3184 100.693C95.4397 100.889 96.5911 100.997 97.7685 100.997C108.753 100.997 117.657 92.0929 117.657 81.1088C117.657 70.1248 108.753 61.2205 97.7685 61.2205Z" fill="#6BBE95"/>
<path d="M97.7687 54.0612C108.753 54.0612 117.657 45.1568 117.657 34.1728C117.657 23.1888 108.753 14.2844 97.7687 14.2844C86.7847 14.2844 77.8804 23.1888 77.8804 34.1728C77.8804 45.1568 86.7847 54.0612 97.7687 54.0612Z" fill="#5AA08F"/>
<path d="M97.7685 14.2842C96.5911 14.2842 95.4397 14.3923 94.3184 14.5885C103.657 16.2227 110.757 24.3659 110.757 34.1723C110.757 43.9787 103.657 52.122 94.3184 53.7564C95.4397 53.9526 96.5911 54.0607 97.7685 54.0607C108.753 54.0607 117.657 45.1564 117.657 34.1723C117.657 23.1885 108.753 14.2842 97.7685 14.2842Z" fill="#5AA08F"/>
<path d="M60.1261 44.9854C52.9745 45.1728 47.066 50.8688 46.6251 58.0094C46.5089 59.8922 46.7723 61.6983 47.34 63.3635C47.4547 63.7002 47.4488 64.066 47.331 64.4015L45.4801 69.6664C45.2241 70.3949 45.925 71.0957 46.6532 70.8395L50.357 69.5374C50.8839 69.352 51.4645 69.4594 51.9031 69.8054C54.3621 71.7436 57.4905 72.8705 60.8854 72.7785C68.3482 72.576 74.3759 66.3955 74.4009 58.9296C74.4271 51.1057 67.9901 44.7791 60.1261 44.9854Z" fill="#93E5AB"/>
<path d="M60.126 44.9854C59.0707 45.013 58.0435 45.1636 57.0561 45.418C63.0752 46.9591 67.5224 52.4248 67.5008 58.9294C67.4794 65.3434 63.0255 70.8052 57.0391 72.346C58.2643 72.6605 59.554 72.8143 60.8855 72.7782C68.3483 72.5758 74.376 66.395 74.401 58.9294C74.427 51.1057 67.99 44.7791 60.126 44.9854Z" fill="#7CCF9E"/>
<path d="M64.4516 58.8909C64.9463 58.0767 66.0071 57.8177 66.8216 58.3115C67.6358 58.806 67.8953 59.8669 67.4007 60.6818C66.8124 61.6513 65.9915 62.4823 65.0395 63.0992C64.2179 63.6316 63.2675 63.8989 62.3166 63.8989C61.4148 63.8989 60.5124 63.6585 59.7185 63.1762L57.1366 61.6089C55.5054 60.6178 54.569 58.7506 54.7512 56.8512L54.7544 56.8165C54.8618 55.695 55.2257 54.5994 55.8072 53.6419C56.3019 52.8274 57.3632 52.5684 58.1772 53.063C58.9914 53.5577 59.2506 54.6185 58.7561 55.433C58.4431 55.9484 58.2471 56.5384 58.1896 57.1387C58.1314 57.7471 58.4129 58.3472 58.9277 58.6598L61.5095 60.227C62.0165 60.5348 62.6656 60.5256 63.164 60.2031C63.6813 59.8685 64.1319 59.4174 64.4516 58.8909Z" fill="black"/>
<path fill-rule="evenodd" clip-rule="evenodd" d="M44.9038 57.9028C45.3974 49.9026 52.0642 43.4711 60.0812 43.2609C64.3448 43.1466 68.3746 44.7277 71.422 47.7063C74.47 50.6854 76.1408 54.6732 76.1266 58.9353C76.0987 67.2927 69.2827 74.2764 60.9327 74.5028C57.3008 74.6012 53.727 73.427 50.8686 71.1862L47.2255 72.4667C46.257 72.8071 45.204 72.5677 44.4781 71.8418C43.7522 71.1156 43.5125 70.0629 43.8532 69.0941L45.69 63.8685C45.0425 61.947 44.7778 59.9402 44.9038 57.9028ZM52.9714 68.4505C55.199 70.2064 57.9904 71.1262 60.8391 71.0538C67.3441 70.8773 72.6544 65.4358 72.6758 58.9234C72.6868 55.6025 71.3849 52.4948 69.0099 50.1734C66.6353 47.8526 63.4963 46.6193 60.1711 46.7094C53.9255 46.8734 48.7316 51.8833 48.3468 58.1153C48.2479 59.7194 48.4584 61.2977 48.9727 62.8066C49.2103 63.5026 49.205 64.2722 48.9584 64.9735L47.6642 68.6552L49.7851 67.9098C50.1453 67.783 50.5179 67.7209 50.888 67.7209C51.63 67.7209 52.3628 67.9705 52.9714 68.4505Z" fill="black"/>
<path d="M94.5155 35.3544H91.7373C90.7845 35.3544 90.0122 34.5822 90.0122 33.6293C90.0122 32.6764 90.7843 31.9043 91.7373 31.9043H94.5155V26.8924C94.5155 24.0269 96.8469 21.6956 99.7123 21.6956H103.8C104.753 21.6956 105.525 22.4677 105.525 23.4206C105.525 24.3735 104.753 25.1457 103.8 25.1457H99.7123C98.7491 25.1457 97.9656 25.9291 97.9656 26.8924V31.9043H100.744C101.697 31.9043 102.469 32.6764 102.469 33.6293C102.469 34.5822 101.697 35.3544 100.744 35.3544H97.9656V46.3198C97.9656 47.2727 97.1935 48.0449 96.2406 48.0449C95.2877 48.0449 94.5155 47.2727 94.5155 46.3198V35.3544Z" fill="black"/>
<path d="M62.2251 7.64985C62.2251 8.60255 61.4527 9.37492 60.5 9.37492C59.5471 9.37492 58.775 8.60255 58.775 7.64985C58.775 6.69716 59.5473 5.92479 60.5 5.92479C61.4527 5.92479 62.2251 6.69716 62.2251 7.64985Z" fill="black"/>
<path fill-rule="evenodd" clip-rule="evenodd" d="M97.7029 59.4968C97.7248 59.4963 97.7467 59.4958 97.7688 59.4958C109.686 59.4958 119.382 69.1916 119.382 81.1095C119.382 93.0274 109.686 102.723 97.7688 102.723C97.7278 102.723 97.6873 102.722 97.6464 102.722V106.839C97.6464 112.863 92.7451 117.764 86.721 117.764H83.4729C82.5065 130.013 72.2605 139.652 59.7634 139.652C47.2662 139.652 37.0202 130.013 36.0538 117.764H34.2791C28.2549 117.764 23.3536 112.863 23.3536 106.839V102.679C22.9026 102.707 22.4483 102.723 21.9904 102.723C10.0725 102.723 0.376953 93.0269 0.376953 81.1093C0.376953 69.1916 10.0725 59.4958 21.9902 59.4961C22.4481 59.4961 22.9024 59.5119 23.3534 59.5402V55.7849C23.3348 55.785 23.3163 55.7853 23.2978 55.7857C23.2756 55.7861 23.2534 55.7865 23.2311 55.7865C11.3132 55.7865 1.61762 46.0907 1.61762 34.1731C1.61762 29.8528 2.88865 25.6828 5.29269 22.113C5.82493 21.3229 6.89677 21.1141 7.68708 21.6459C8.47716 22.1781 8.68624 23.25 8.15423 24.0403C6.13522 27.0382 5.06775 30.5421 5.06775 34.1731C5.06775 44.1883 13.2158 52.3364 23.2311 52.3364C33.2463 52.3364 41.3944 44.1883 41.3944 34.1731C41.3944 24.1578 33.2463 16.0097 23.2311 16.0097C19.7158 16.0097 16.306 17.0149 13.3704 18.9166C12.5709 19.4346 11.5029 19.2062 10.9847 18.4064C10.4667 17.6069 10.6951 16.5388 11.4949 16.0208C15.0269 13.7329 19.1275 12.5366 23.3536 12.5612V10.9254C23.3536 4.90125 28.2549 0 34.2791 0H86.721C92.7451 0 97.6464 4.90125 97.6464 10.9254V12.5612C109.608 12.4934 119.382 22.2069 119.382 34.1731C119.382 46.0909 109.686 55.7865 97.7688 55.7865C97.7464 55.7865 97.7242 55.7861 97.702 55.7857C97.6835 55.7853 97.665 55.785 97.6464 55.7849V59.4977C97.6653 59.4976 97.6841 59.4972 97.7029 59.4968ZM43.913 117.764C44.8509 125.686 51.5896 131.83 59.7634 131.83C67.9371 131.83 74.6759 125.686 75.6137 117.764H43.913ZM75.6506 114.314H43.876C43.991 113.12 44.2374 111.965 44.6005 110.864H74.9251C75.2886 111.966 75.5353 113.121 75.6506 114.314ZM83.4975 114.314H86.721C90.843 114.314 94.1963 110.961 94.1963 106.839V102.426C93.011 102.228 91.8582 101.934 90.7461 101.551V105.689C90.7461 108.542 88.4244 110.864 85.5709 110.864H83.0201C83.2605 111.987 83.4217 113.139 83.4975 114.314ZM82.0011 107.414H85.5712C86.5225 107.414 87.2962 106.64 87.2962 105.689V100.01C80.6577 96.3172 76.1555 89.2297 76.1555 81.1093C76.1555 79.2596 76.3897 77.422 76.852 75.6475C77.0921 74.7256 78.034 74.1725 78.9561 74.413C79.878 74.6532 80.4307 75.5951 80.1906 76.5172C79.8021 78.0078 79.6055 79.5528 79.6055 81.1093C79.6055 91.1248 87.7535 99.2728 97.7688 99.2728C107.784 99.2728 115.932 91.1248 115.933 81.1093C115.933 71.094 107.784 62.946 97.7692 62.946C92.0179 62.946 86.8459 65.526 83.3753 70.0295C82.7934 70.7844 81.7107 70.9243 80.9558 70.3424C80.2014 69.7604 80.0613 68.6773 80.643 67.9229C82.4868 65.5315 84.7526 63.5971 87.2965 62.1867V53.2787C87.2965 53.2116 87.3013 53.1455 87.3087 53.0804C80.6635 49.3893 76.1558 42.2981 76.1558 34.1728C76.1558 26.0526 80.658 18.9651 87.2965 15.2721V12.0752C87.2965 11.1239 86.5227 10.3502 85.5714 10.3502H79.2347C79.1714 10.3502 79.1197 10.4019 79.1197 10.4652C79.1197 13.131 76.9507 15.2999 74.2847 15.2999H46.7161C44.05 15.2999 41.8811 13.131 41.8811 10.4652C41.8811 10.4442 41.8776 10.4127 41.8479 10.3833C41.8277 10.3628 41.7985 10.3502 41.7661 10.3502H35.4293C34.478 10.3502 33.7043 11.1239 33.7043 12.0752V15.2721C40.3428 18.9651 44.845 26.0526 44.845 34.1728C44.845 42.293 40.3428 49.3805 33.7043 53.0735V62.9533C39.6569 66.8071 43.6041 73.5057 43.6041 81.1093C43.6041 88.7129 39.6569 95.4114 33.7043 99.2652V105.689C33.7043 106.64 34.478 107.414 35.4293 107.414H37.5268C38.5363 104.76 40.0066 102.334 41.8388 100.234C42.4423 99.5428 43.0853 98.8865 43.7643 98.2689L43.8539 98.1779L43.9506 98.1013C44.6614 97.4683 45.4105 96.8773 46.1941 96.3321C50.0436 93.6541 54.7259 92.0837 59.7634 92.0837C69.9215 92.0837 78.5922 98.4519 82.0011 107.414ZM46.2209 107.414H73.3051C70.4843 102.905 65.474 99.9059 59.7634 99.9059C56.4155 99.9059 53.3189 100.932 50.7565 102.688L49.0903 104.009L47.6592 105.462C47.1322 106.074 46.651 106.727 46.2209 107.414ZM36.5073 110.864H35.4291C32.5756 110.864 30.2539 108.542 30.2539 105.689V101.08C29.1469 101.539 27.9941 101.91 26.8038 102.182V106.839C26.8038 110.961 30.1571 114.314 34.2791 114.314H36.0293C36.1053 113.139 36.2666 111.987 36.5073 110.864ZM115.932 34.1731C115.932 24.1578 107.784 16.0097 97.7688 16.0097C87.7535 16.0097 79.6055 24.1578 79.6055 34.1731C79.6055 44.1883 87.7535 52.3364 97.7688 52.3364C107.784 52.3364 115.932 44.1883 115.932 34.1731ZM94.1963 59.7889V55.4893C93.011 55.2915 91.858 54.9973 90.7461 54.6141V60.656C91.8637 60.2744 93.0168 59.9835 94.1963 59.7889ZM30.2539 13.7315V12.0752C30.2539 9.22173 32.5754 6.90002 35.4289 6.90002H41.7656C42.7139 6.90002 43.6075 7.26919 44.2826 7.93897C44.9602 8.61635 45.3307 9.51177 45.3307 10.4652C45.3307 11.2288 45.9522 11.8498 46.7156 11.8498H74.2842C75.0478 11.8498 75.6691 11.2286 75.6691 10.4652C75.6691 8.49927 77.2683 6.90002 79.2342 6.90002H85.5709C88.4244 6.90002 90.7461 9.22173 90.7461 12.0752V13.7315C91.8582 13.3483 93.011 13.0544 94.1963 12.8563V10.9252C94.1963 6.80319 90.843 3.4499 86.721 3.4499H34.2791C30.1571 3.4499 26.8038 6.80319 26.8038 10.9252V12.8563C27.989 13.0544 29.1418 13.3483 30.2539 13.7315ZM30.2539 54.6141C29.1418 54.9973 27.989 55.2913 26.8038 55.4893V60.0368C27.9941 60.3085 29.1469 60.6792 30.2539 61.139V54.6141ZM3.82708 81.1093C3.82708 91.1248 11.9751 99.2728 21.9904 99.2728C31.7973 99.2728 40.1537 91.6954 40.1537 81.1093C40.1537 71.094 32.0056 62.946 21.9904 62.946C11.9751 62.946 3.82708 71.094 3.82708 81.1093Z" fill="black"/>
<path d="M32.5706 75.1739C31.1861 75.1739 29.9087 74.7153 28.8829 73.9415C27.7064 73.0546 26.8611 71.7535 26.5626 70.2539C26.4887 69.8833 26.4489 69.501 26.4451 69.1091H22.4902V79.9158L22.4855 85.8352C22.4855 87.4177 21.4549 88.7595 20.0264 89.2315C19.6118 89.3684 19.1641 89.4333 18.6978 89.4077C18.1027 89.375 17.545 89.1954 17.0603 88.9055C16.0288 88.2886 15.3295 87.1694 15.3105 85.8892C15.2807 83.8883 16.8983 82.2569 18.8978 82.2569C19.2925 82.2569 19.6715 82.3214 20.0264 82.4384V79.4847V78.4229C19.6521 78.3674 19.2711 78.3385 18.8859 78.3385C16.6974 78.3385 14.6505 79.2482 13.1874 80.8872C12.0815 82.1257 11.4182 83.7059 11.3158 85.3628C11.1817 87.5395 11.9782 89.6086 13.5228 91.1352C13.7498 91.3593 13.9881 91.5674 14.2374 91.7592C15.5617 92.7784 17.1807 93.3309 18.8859 93.3309C19.2711 93.3309 19.6521 93.3025 20.0264 93.247C21.6193 93.0111 23.0891 92.2819 24.249 91.1352C25.6742 89.7266 26.4617 87.8565 26.4702 85.866L26.4499 77.0265C27.1298 77.551 27.8732 77.9851 28.6711 78.3219C29.912 78.8455 31.2278 79.1108 32.5819 79.1104V76.2386V75.173C32.5829 75.1739 32.5715 75.1739 32.5706 75.1739Z" fill="black"/>
<path d="M35.8736 28.8148C35.8131 27.4436 35.5914 26.501 35.2738 25.6842C34.9461 24.8172 34.442 24.041 33.7815 23.3957C33.1362 22.7403 32.3549 22.2311 31.4979 21.9086C30.6764 21.5909 29.7387 21.3692 28.3676 21.3088C26.9862 21.2432 26.5477 21.228 23.0442 21.228C19.5407 21.228 19.1021 21.2432 17.7259 21.3036C16.3548 21.3641 15.4121 21.586 14.5955 21.9034C13.7283 22.2311 12.9521 22.7352 12.3068 23.3957C11.6515 24.041 11.1424 24.8223 10.8197 25.6793C10.5021 26.501 10.2803 27.4385 10.2199 28.8096C10.1543 30.191 10.1392 30.6295 10.1392 34.133C10.1392 37.6365 10.1543 38.0751 10.2148 39.4513C10.2752 40.8224 10.4972 41.7651 10.8148 42.5819C11.1424 43.4489 11.6515 44.2251 12.3068 44.8704C12.9521 45.5257 13.7334 46.035 14.5904 46.3575C15.4121 46.6751 16.3497 46.8968 17.721 46.9573C19.097 47.0179 19.5357 47.0329 23.0392 47.0329C26.5427 47.0329 26.9813 47.0179 28.3575 46.9573C29.7286 46.8968 30.6713 46.6751 31.4879 46.3575C33.2221 45.687 34.5932 44.3159 35.2637 42.5819C35.5811 41.7601 35.8031 40.8224 35.8635 39.4513C35.924 38.0751 35.9391 37.6365 35.9391 34.133C35.9391 30.6295 35.934 30.191 35.8736 28.8148ZM33.5498 39.3505C33.4942 40.6107 33.2825 41.2913 33.1061 41.745C32.6725 42.8692 31.7803 43.7614 30.6561 44.195C30.2024 44.3714 29.5169 44.5831 28.2616 44.6384C26.9005 44.6991 26.4923 44.714 23.0493 44.714C19.6062 44.714 19.1929 44.6991 17.8368 44.6384C16.5765 44.5831 15.896 44.3714 15.4423 44.195C14.8828 43.9882 14.3736 43.6606 13.9603 43.2321C13.5318 42.8136 13.2041 42.3095 12.9974 41.7501C12.8209 41.2964 12.6093 40.6107 12.5539 39.3556C12.4933 37.9945 12.4783 37.5861 12.4783 34.1431C12.4783 30.7 12.4933 30.2867 12.5539 28.9307C12.6093 27.6705 12.8209 26.9899 12.9974 26.5363C13.2041 25.9766 13.5318 25.4676 13.9654 25.0541C14.3837 24.6256 14.8878 24.2979 15.4474 24.0914C15.9011 23.9149 16.5867 23.7032 17.8419 23.6477C19.2029 23.5873 19.6113 23.5721 23.0542 23.5721C26.5024 23.5721 26.9106 23.5873 28.2667 23.6477C29.527 23.7032 30.2075 23.9149 30.6612 24.0914C31.2207 24.2979 31.7299 24.6256 32.1432 25.0541C32.5717 25.4725 32.8994 25.9766 33.1061 26.5363C33.2825 26.9899 33.4942 27.6754 33.5498 28.9307C33.6102 30.2918 33.6254 30.7 33.6254 34.1431C33.6254 37.5861 33.6102 37.9894 33.5498 39.3505Z" fill="black"/>
<path d="M23.0445 27.5042C19.3848 27.5042 16.4155 30.4732 16.4155 34.1331C16.4155 37.7929 19.3848 40.762 23.0445 40.762C26.7043 40.762 29.6734 37.7929 29.6734 34.1331C29.6734 30.4732 26.7043 27.5042 23.0445 27.5042ZM23.0445 38.4331C20.6703 38.4331 18.7444 36.5075 18.7444 34.1331C18.7444 31.7587 20.6703 29.8331 23.0445 29.8331C25.4189 29.8331 27.3445 31.7587 27.3445 34.1331C27.3445 36.5075 25.4189 38.4331 23.0445 38.4331Z" fill="black"/>
<path d="M31.483 27.2419C31.483 28.0965 30.7901 28.7894 29.9352 28.7894C29.0806 28.7894 28.3877 28.0965 28.3877 27.2419C28.3877 26.3871 29.0806 25.6943 29.9352 25.6943C30.7901 25.6943 31.483 26.3871 31.483 27.2419Z" fill="black"/>
<path d="M109.506 75.2868C109.223 74.2345 108.393 73.4049 107.341 73.1215C105.419 72.5955 97.7294 72.5955 97.7294 72.5955C97.7294 72.5955 90.0401 72.5955 88.1177 73.1015C87.0858 73.3847 86.2358 74.2346 85.9526 75.2868C85.4468 77.209 85.4468 81.1954 85.4468 81.1954C85.4468 81.1954 85.4468 85.2019 85.9526 87.1041C86.236 88.1563 87.0655 88.986 88.1179 89.2693C90.0603 89.7954 97.7296 89.7954 97.7296 89.7954C97.7296 89.7954 105.419 89.7954 107.341 89.2894C108.394 89.0062 109.223 88.1765 109.507 87.1243C110.012 85.2019 110.012 81.2157 110.012 81.2157C110.012 81.2157 110.033 77.209 109.506 75.2868Z" fill="black"/>
<path d="M95.2812 84.8784L101.676 81.1955L95.2812 77.5127V84.8784Z" fill="#B5FFE1"/>
<path d="M59.7785 135.772C70.7626 135.772 79.6669 126.868 79.6669 115.884C79.6669 104.9 70.7626 95.9954 59.7785 95.9954C48.7945 95.9954 39.8901 104.9 39.8901 115.884C39.8901 126.868 48.7945 135.772 59.7785 135.772Z" fill="#93E5AB"/>
<path d="M59.7787 95.9946C58.6013 95.9946 57.4499 96.1027 56.3286 96.2989C65.6672 97.9331 72.7669 106.076 72.7669 115.883C72.7669 125.69 65.6672 133.833 56.3286 135.467C57.4499 135.663 58.6013 135.771 59.7787 135.771C70.7628 135.771 79.6671 126.867 79.6671 115.883C79.6671 104.899 70.7626 95.9946 59.7787 95.9946Z" fill="#93E5AB"/>
<path d="M52.9371 108.313V113.484L50.2099 113.143L49.869 115.245L52.4826 117.006L51.3463 119.79L47.5396 121.551V122.915L50.2099 123.881L50.8917 125.642H53.903L56.2893 126.722L60.3233 128.085L64.755 126.21L69.0731 125.642V124.336L70.7776 123.881L72.5389 122.574L71.573 121.551L68.5049 119.79L67.3686 117.006L69.0731 116.04L70.1526 114.677L69.0731 113.143L67.3686 113.484L66.8004 108.825L64.755 105.529L61.4028 103.995H58.3347L55.4939 105.529L52.9371 108.313Z" fill="#B5FFE1"/>
<path d="M59.9137 104.618C63.4825 104.619 66.4552 107.586 66.4595 111.159C66.4605 111.996 66.4863 112.766 66.5336 113.476C66.5628 113.914 66.9275 114.239 67.3458 114.239C67.4074 114.239 67.4701 114.232 67.5332 114.217L68.6511 113.955C68.6987 113.944 68.7465 113.939 68.7936 113.939C69.0776 113.939 69.339 114.133 69.4028 114.42C69.4929 114.825 69.2654 115.235 68.8719 115.373L67.1749 116.057C66.7465 116.23 66.5164 116.695 66.637 117.141C67.9985 122.168 71.8013 121.645 71.8013 122.3C71.8013 123.122 68.935 123.239 68.676 123.497C68.417 123.756 68.6648 125.011 68.0862 125.254C67.9771 125.3 67.8221 125.316 67.6331 125.316C67.1973 125.316 66.581 125.231 65.9314 125.231C65.3679 125.231 64.7793 125.295 64.2619 125.534C62.8893 126.167 61.566 127.35 59.9255 127.35C58.285 127.35 56.9617 126.167 55.5891 125.534C55.0716 125.295 54.4832 125.231 53.9197 125.231C53.2701 125.231 52.6536 125.316 52.2179 125.316C52.029 125.316 51.8739 125.3 51.7649 125.254C51.1863 125.011 51.434 123.756 51.175 123.497C50.9161 123.239 48.0498 123.122 48.0498 122.3C48.0498 121.645 51.8525 122.168 53.214 117.141C53.3347 116.695 53.1046 116.23 52.6761 116.057L50.979 115.373C50.5855 115.235 50.358 114.825 50.4482 114.42C50.5119 114.133 50.7734 113.939 51.0573 113.939C51.1045 113.939 51.1523 113.944 51.1998 113.955L52.3178 114.217C52.3808 114.232 52.4436 114.239 52.5052 114.239C52.9234 114.239 53.2882 113.914 53.3173 113.476C53.3646 112.766 53.3905 111.996 53.3916 111.159C53.3959 107.586 56.3449 104.619 59.9137 104.618ZM59.9142 103.2H59.9136H59.9131C58.8479 103.2 57.8102 103.414 56.829 103.835C55.8872 104.24 55.0395 104.816 54.3096 105.549C53.5807 106.281 53.007 107.131 52.6046 108.074C52.1861 109.056 51.9734 110.093 51.972 111.157C51.9714 111.68 51.9606 112.187 51.9397 112.673L51.5237 112.575C51.3711 112.539 51.2142 112.521 51.0574 112.521C50.6048 112.521 50.1582 112.674 49.8001 112.951C49.4265 113.241 49.1644 113.653 49.0624 114.112C48.8196 115.205 49.4238 116.309 50.4708 116.697L51.7163 117.199C50.8916 119.727 49.3709 120.211 48.3468 120.538C48.0751 120.624 47.8404 120.699 47.6169 120.81C46.7265 121.251 46.6304 121.999 46.6304 122.3C46.6304 122.876 46.9036 123.403 47.3997 123.781C47.6468 123.97 47.9528 124.126 48.3352 124.257C48.8565 124.436 49.4607 124.55 49.9519 124.641C49.9756 124.823 50.0104 125.018 50.069 125.215C50.3126 126.032 50.8264 126.398 51.2147 126.561C51.583 126.716 51.9636 126.734 52.2179 126.734C52.4666 126.734 52.7294 126.714 53.0077 126.694C53.3063 126.672 53.6151 126.649 53.9197 126.649C54.3917 126.649 54.7431 126.705 54.9939 126.821C55.3382 126.98 55.7034 127.194 56.09 127.421C57.1664 128.052 58.3863 128.767 59.9255 128.767C61.4647 128.767 62.6846 128.052 63.7609 127.421C64.1476 127.194 64.5128 126.98 64.8572 126.821C65.1079 126.705 65.4593 126.649 65.9314 126.649C66.236 126.649 66.5447 126.672 66.8432 126.694C67.1215 126.714 67.3844 126.734 67.6331 126.734C67.8873 126.734 68.2679 126.716 68.6363 126.561C69.0245 126.398 69.5384 126.032 69.7819 125.215C69.8406 125.018 69.8754 124.823 69.8991 124.641C70.3902 124.55 70.9945 124.436 71.5157 124.257C71.8982 124.126 72.2042 123.97 72.4512 123.781C72.9473 123.403 73.2206 122.876 73.2206 122.3C73.2206 121.999 73.1245 121.251 72.234 120.81C72.0105 120.699 71.7758 120.624 71.504 120.538C70.48 120.211 68.9593 119.727 68.1345 117.199L69.38 116.697C70.427 116.309 71.0313 115.205 70.7884 114.112C70.6864 113.653 70.4244 113.241 70.0508 112.951C69.6926 112.674 69.2462 112.521 68.7936 112.521C68.6369 112.521 68.48 112.539 68.3272 112.575L67.9112 112.672C67.8903 112.187 67.8795 111.68 67.8789 111.157C67.8776 110.092 67.6631 109.054 67.2413 108.071C66.8364 107.128 66.2596 106.278 65.527 105.547C64.7944 104.815 63.9444 104.239 63.0006 103.835C62.0175 103.414 60.9791 103.2 59.9142 103.2Z" fill="#050505"/>
</svg>
