<svg width="123" height="140" viewBox="0 0 123 140" fill="none" xmlns="http://www.w3.org/2000/svg">
<path fill-rule="evenodd" clip-rule="evenodd" d="M120.174 59.4033V124.776C120.174 131.624 114.571 137.228 107.722 137.228H20.3514C13.5027 137.228 7.89941 131.624 7.89941 124.776V59.4033H120.174Z" fill="#7CCF9E"/>
<path fill-rule="evenodd" clip-rule="evenodd" d="M3.22186 43.2568L7.89922 59.4038L115.741 28.1635L111.063 12.0165C109.157 5.43831 102.217 1.61545 95.6387 3.52155L11.7168 27.8321C5.13862 29.7382 1.31682 36.6786 3.22186 43.2568Z" fill="#4E878C"/>
<path fill-rule="evenodd" clip-rule="evenodd" d="M7.89941 59.4033H120.174V84.9296H7.89941V59.4033Z" fill="#4E878C"/>
<path fill-rule="evenodd" clip-rule="evenodd" d="M80.1693 110.801L68.1882 103.884L56.2061 96.9663V124.636L68.1882 117.718L80.1693 110.801Z" fill="#B5FFE1"/>
<path fill-rule="evenodd" clip-rule="evenodd" d="M120.174 56.6761H27.1169L116.499 30.7833C117.194 30.5819 117.78 30.112 118.129 29.4792C118.479 28.8452 118.562 28.0994 118.361 27.4047L113.683 11.2577C111.814 4.80847 105.81 0.303711 99.0801 0.303711C97.662 0.303711 96.2492 0.505083 94.879 0.901433L10.9582 25.212C7.07673 26.3361 3.86011 28.9166 1.8986 32.4763C-0.0618443 36.036 -0.522122 40.1348 0.601936 44.0152L5.17169 59.7904V124.776C5.17169 133.146 11.981 139.955 20.3502 139.955H53.1258C54.6324 139.955 55.8534 138.734 55.8534 137.228C55.8534 135.721 54.6324 134.5 53.1258 134.5H20.3513C14.9888 134.5 10.6268 130.138 10.6268 124.776V87.6575H24.6003H24.6067H24.612H45.9724H45.9788H45.9851H67.3455H67.3519H67.3582H88.7186H88.7249H88.7303H117.447V124.776C117.447 130.138 113.085 134.5 107.722 134.5H74.9464C73.4409 134.5 72.2189 135.721 72.2189 137.228C72.2189 138.734 73.4409 139.955 74.9464 139.955H107.722C116.092 139.955 122.902 133.146 122.902 124.776V59.4036C122.902 57.8971 121.681 56.6761 120.174 56.6761ZM72.0782 82.2023L83.6672 62.1312H98.7402L87.1523 82.2023H72.0782ZM50.7051 82.2023L62.2941 62.1312H77.3672L65.7792 82.2023H50.7051ZM29.3331 82.2023L40.921 62.1312H55.9951L44.4061 82.2023H29.3331ZM39.4741 46.8919L20.0679 28.2528L34.6082 24.0411C34.7105 24.1902 34.8298 24.3309 34.9662 24.4619L54.3724 43.101L39.8321 47.3128C39.7298 47.1636 39.6094 47.0219 39.4741 46.8919ZM76.0236 12.5682L95.4299 31.2073L80.8896 35.4191C80.7873 35.2699 80.6679 35.1282 80.5316 34.9982L61.1253 16.3591L75.6656 12.1473C75.7679 12.2965 75.8872 12.4372 76.0236 12.5682ZM55.4944 18.5156L74.9006 37.1537L60.3603 41.3665C60.258 41.2173 60.1387 41.0756 60.0023 40.9456L40.5961 22.3065L55.1364 18.0947C55.2397 18.2428 55.359 18.3845 55.4944 18.5156ZM96.3973 6.14136C97.2731 5.88778 98.1756 5.75886 99.0801 5.75886C103.396 5.75886 107.246 8.64412 108.443 12.776L112.362 26.302L101.419 29.4717C101.315 29.3225 101.196 29.1819 101.06 29.0508L81.6546 10.4128L96.3973 6.14136ZM6.67718 35.108C7.93442 32.8247 9.99395 31.1711 12.4765 30.4519L14.0789 29.9874C14.1823 30.1365 14.3016 30.2783 14.4369 30.4082L33.8432 49.0474L9.76062 56.024L5.84186 42.498C5.12268 40.0165 5.41994 37.3923 6.67718 35.108ZM10.6268 62.1312H34.622L23.0341 82.2023H10.6268V62.1312ZM93.4513 82.2023L105.039 62.1312H117.447V82.2023H93.4513Z" fill="black"/>
<path fill-rule="evenodd" clip-rule="evenodd" d="M82.8969 110.802C82.8969 109.827 82.3769 108.926 81.5331 108.439L57.5699 94.6044C56.726 94.1175 55.6861 94.1175 54.8423 94.6044C53.9985 95.0914 53.4785 95.9917 53.4785 96.9666V124.637C53.4785 125.61 53.9985 126.511 54.8423 126.998C55.2642 127.242 55.7352 127.364 56.2061 127.364C56.677 127.364 57.148 127.242 57.5699 126.998L81.5331 113.164C82.3769 112.677 82.8969 111.776 82.8969 110.802ZM58.9337 119.912V101.691L74.7142 110.802L58.9337 119.912Z" fill="black"/>
<path fill-rule="evenodd" clip-rule="evenodd" d="M64.0362 134.5C62.5339 134.5 61.3086 135.726 61.3086 137.228C61.3086 138.73 62.5339 139.955 64.0362 139.955C65.5395 139.955 66.7637 138.73 66.7637 137.228C66.7637 135.726 65.5395 134.5 64.0362 134.5Z" fill="black"/>
</svg>
