<svg width="141" height="140" viewBox="0 0 141 140" fill="none" xmlns="http://www.w3.org/2000/svg">
<path fill-rule="evenodd" clip-rule="evenodd" d="M19.7051 19.3424C41.4522 -2.40578 76.7136 -2.40578 98.4606 19.3424C117.813 38.6932 119.945 68.7423 104.859 90.451L134.688 120.281C138.551 124.143 138.551 130.463 134.688 134.326C130.826 138.188 124.506 138.188 120.643 134.326L90.8138 104.496C69.1041 119.582 39.056 117.45 19.7051 98.0989C-2.04299 76.3497 -2.04299 41.0905 19.7051 19.3424Z" fill="#B5FFE1"/>
<path fill-rule="evenodd" clip-rule="evenodd" d="M89.5356 28.2666C72.7173 11.4473 45.448 11.4473 28.6287 28.2666C11.8093 45.0859 11.8093 72.3542 28.6287 89.1735C45.448 105.993 72.7173 105.993 89.5356 89.1735C106.355 72.3542 106.355 45.0859 89.5356 28.2666Z" fill="#71C498"/>
<path fill-rule="evenodd" clip-rule="evenodd" d="M59.0834 69.3218C67.3471 69.3218 74.0861 61.0571 74.0861 50.9235C74.0861 40.7899 67.3471 32.5251 59.0834 32.5251C50.8197 32.5251 44.0796 40.7899 44.0796 50.9235C44.0796 61.0571 50.8197 69.3218 59.0834 69.3218Z" fill="#FFEDE1"/>
<path fill-rule="evenodd" clip-rule="evenodd" d="M94.9136 82.6317C89.3285 71.1791 85.0219 65.8603 69.2371 64.4678C66.565 67.482 63 69.322 59.0833 69.322C55.1667 69.322 51.6006 67.482 48.9284 64.4678C33.1437 65.8603 28.8382 71.1791 23.252 82.6317C24.7969 84.9416 26.59 87.1354 28.6293 89.1747C45.4487 105.993 72.718 105.993 89.5373 89.1747C91.5766 87.1343 93.3687 84.9416 94.9136 82.6317Z" fill="#93E5AB"/>
<path fill-rule="evenodd" clip-rule="evenodd" d="M136.617 118.352L108.367 90.1028C112.312 83.9295 115.019 77.1425 116.425 69.8974C116.712 68.4186 115.746 66.9866 114.267 66.7C112.791 66.4144 111.357 67.3787 111.07 68.8575C109.664 76.1069 106.82 82.8481 102.619 88.8946C101.866 89.9792 101.997 91.4463 102.93 92.3797L132.76 122.209C134.113 123.562 134.858 125.371 134.858 127.303C134.858 129.235 134.113 131.044 132.76 132.397C129.951 135.206 125.381 135.206 122.572 132.397L92.7424 102.568C91.8091 101.634 90.3419 101.503 89.2573 102.256C68.2198 116.876 39.7795 114.316 21.6337 96.1695C14.184 88.7198 9.16998 79.3417 7.13495 69.0493C6.84302 67.5715 5.40784 66.6094 3.93005 66.9035C2.45226 67.1954 1.49228 68.6295 1.78422 70.1073C4.02914 81.464 9.55994 91.8097 17.7768 100.028C27.5204 109.77 40.4359 115.773 54.1462 116.929C66.9274 118.005 79.7342 114.845 90.4655 108.004L118.715 136.254C121.183 138.722 124.424 139.956 127.666 139.956C130.907 139.956 134.149 138.722 136.617 136.254C138.999 133.871 140.312 130.692 140.312 127.303C140.313 123.914 139 120.736 136.617 118.352Z" fill="black"/>
<path fill-rule="evenodd" clip-rule="evenodd" d="M3.93035 50.5379C4.10935 50.5731 4.28728 50.5902 4.46308 50.5902C5.73843 50.5902 6.87848 49.6909 7.13525 48.3921C9.17134 38.0977 14.1854 28.7195 21.634 21.2709C31.6376 11.2673 44.9367 5.75886 59.0838 5.75886C73.2299 5.75886 86.53 11.2673 96.5325 21.2709C103.93 28.6673 108.929 37.9762 110.991 48.1907C111.289 49.6675 112.728 50.6189 114.204 50.3249C115.68 50.0265 116.636 48.5882 116.337 47.1114C114.063 35.8421 108.549 25.5721 100.39 17.4139C89.3567 6.38002 74.6864 0.303711 59.0838 0.303711C43.4791 0.303711 28.8099 6.38002 17.776 17.4139C9.5613 25.6297 4.0305 35.9753 1.78452 47.333C1.49152 48.8108 2.45256 50.2449 3.93035 50.5379Z" fill="black"/>
<path fill-rule="evenodd" clip-rule="evenodd" d="M91.4657 26.3371C82.8152 17.6877 71.3147 12.9241 59.0832 12.9241C46.8496 12.9241 35.3501 17.6877 26.7007 26.3371C18.0503 34.9876 13.2866 46.4881 13.2866 58.7207C13.2866 67.3701 15.6722 75.6529 20.1258 82.8214L20.1141 82.8448L20.6926 83.711C22.4165 86.3469 24.4217 88.8241 26.6997 91.1032C35.3501 99.7525 46.8496 104.516 59.0822 104.516C71.3147 104.516 82.8152 99.7525 91.4646 91.1032C93.7383 88.8295 95.7403 86.3576 97.461 83.7291L98.0524 82.8459L98.0396 82.8214C102.493 75.6529 104.878 67.3701 104.878 58.7207C104.879 46.4881 100.115 34.9876 91.4657 26.3371ZM30.5577 30.1952C38.1768 22.575 48.3072 18.3792 59.0832 18.3792C69.8582 18.3792 79.9886 22.5761 87.6077 30.1952C95.2278 37.8142 99.4236 47.9446 99.4236 58.7207C99.4236 65.1816 97.9139 71.4092 95.0627 77.0039C90.2905 68.4973 85.171 64.0757 74.0103 62.3006C75.7811 59.0147 76.8135 55.1109 76.8135 50.9236C76.8135 39.275 68.8588 29.7977 59.0822 29.7977C49.3055 29.7977 41.3519 39.275 41.3519 50.9236C41.3519 55.1109 42.3832 59.0137 44.154 62.3006C32.9933 64.0757 27.8738 68.4973 23.1016 77.0039C20.2515 71.4092 18.7407 65.1805 18.7407 58.7207C18.7418 47.9446 22.9375 37.8142 30.5577 30.1952ZM61.2461 66.3462C61.0959 66.3813 60.9446 66.4122 60.7922 66.4399C60.7358 66.4495 60.6793 66.458 60.6217 66.4676C60.496 66.4879 60.3692 66.5081 60.2424 66.523C60.1466 66.5347 60.0507 66.5422 59.9537 66.5518C59.8599 66.5603 59.7662 66.5699 59.6724 66.5763C59.4764 66.588 59.2803 66.5955 59.0832 66.5955C58.885 66.5955 58.689 66.588 58.493 66.5763C58.3992 66.5699 58.3054 66.5603 58.2117 66.5518C58.1158 66.5433 58.0188 66.5347 57.9229 66.523C57.7962 66.5081 57.6704 66.4879 57.5447 66.4676C57.4872 66.4591 57.4296 66.4506 57.3732 66.4399C57.2208 66.4122 57.0706 66.3813 56.9203 66.3462C56.8948 66.3408 56.8692 66.3355 56.8447 66.3291C54.6818 65.8124 52.65 64.5541 50.9698 62.6586L50.68 62.3326C48.2987 59.4729 46.807 55.4178 46.807 50.9236C46.807 42.2828 52.3144 35.2529 59.0832 35.2529C65.8521 35.2529 71.3584 42.2828 71.3584 50.9236C71.3584 55.4146 69.8689 59.4676 67.4897 62.3283L67.1956 62.6597C65.5165 64.5541 63.4836 65.8134 61.3207 66.3302C61.2962 66.3355 61.2706 66.3408 61.2461 66.3462ZM59.0832 99.0611C48.3072 99.0611 38.1768 94.8653 30.5577 87.2451C30.2157 86.9031 29.8811 86.5536 29.5519 86.1999C29.4922 86.136 29.4326 86.0721 29.3729 86.0081C29.0426 85.648 28.7177 85.2847 28.4012 84.9139C28.3863 84.8969 28.3714 84.8787 28.3565 84.8617C27.6756 84.0637 27.0257 83.2401 26.412 82.3952C31.1746 72.9126 34.9932 68.6848 47.8735 67.3104C50.1003 69.4765 52.716 70.9415 55.5118 71.6191C55.5139 71.6202 55.5161 71.6202 55.5182 71.6212C55.7803 71.6841 56.0445 71.7406 56.3088 71.7896C56.3674 71.8002 56.4249 71.8109 56.4824 71.8205C56.6966 71.8578 56.9118 71.8908 57.127 71.9185C57.208 71.9292 57.2879 71.9398 57.37 71.9494C57.5745 71.9728 57.7812 71.9899 57.9879 72.0059C58.0689 72.0112 58.1488 72.0197 58.2309 72.024C58.5132 72.04 58.7977 72.0496 59.0832 72.0496C59.3677 72.0496 59.6522 72.04 59.9356 72.024C60.0166 72.0187 60.0965 72.0112 60.1775 72.0059C60.3841 71.9899 60.5908 71.9728 60.7954 71.9494C60.8775 71.9398 60.9584 71.9292 61.0383 71.9185C61.2546 71.8908 61.4688 71.8578 61.6819 71.8205C61.7405 71.8109 61.7991 71.8002 61.8566 71.7896C62.1219 71.7406 62.3851 71.6841 62.6461 71.6212C62.6493 71.6202 62.6514 71.6202 62.6546 71.6191C65.4493 70.9415 68.065 69.4754 70.2918 67.3104C83.1722 68.6848 86.9908 72.9126 91.7544 82.3952C91.1407 83.2379 90.4929 84.0594 89.8132 84.8564C89.7961 84.8766 89.7802 84.8969 89.7631 84.916C89.4477 85.2847 89.1238 85.6469 88.7957 86.0039C88.7339 86.071 88.6721 86.1371 88.6103 86.2042C88.2821 86.5558 87.9486 86.9053 87.6077 87.2451C79.9886 94.8653 69.8582 99.0611 59.0832 99.0611Z" fill="black"/>
<path fill-rule="evenodd" clip-rule="evenodd" d="M6.12165 58.7207C6.12165 57.2184 4.89637 55.9932 3.39408 55.9932C1.89178 55.9932 0.666504 57.2184 0.666504 58.7207C0.666504 60.223 1.89178 61.4483 3.39408 61.4483C4.89637 61.4483 6.12165 60.223 6.12165 58.7207Z" fill="black"/>
<path fill-rule="evenodd" clip-rule="evenodd" d="M111.988 58.5108C111.988 60.0131 113.213 61.2384 114.715 61.2384C116.218 61.2384 117.443 60.0131 117.443 58.5108C117.443 57.0085 116.218 55.7832 114.715 55.7832C113.213 55.7832 111.988 57.0085 111.988 58.5108Z" fill="black"/>
</svg>
