<svg width="239" height="270" viewBox="0 0 239 270" fill="none" xmlns="http://www.w3.org/2000/svg">
<g filter="url(#filter0_d)">
<path d="M119.5 0L222.99 59.75V179.25L119.5 239L16.01 179.25V59.75L119.5 0Z" fill="rgba(89, 145, 112)"/>
</g>
<path d="M201.571 220.884L119.5 268.268L37.4285 220.884L37.4285 126.116L119.5 78.7321L201.571 126.116L201.571 220.884Z" stroke="rgba(89, 145, 112)" stroke-width="3"/>
<path d="M77.7 141C75.42 141 73.46 140.2 71.82 138.6C70.22 136.96 69.42 135 69.42 132.72V129.9H77.28V131.04C77.28 132.16 77.34 132.8 77.46 132.96C77.62 133.08 78.26 133.14 79.38 133.14H102.24C103.36 133.14 103.98 133.08 104.1 132.96C104.26 132.8 104.34 132.16 104.34 131.04V125.04C104.34 123.92 104.26 123.3 104.1 123.18C103.98 123.02 103.36 122.94 102.24 122.94H69.42V97.8H112.2V105.66H79.38C78.26 105.66 77.62 105.74 77.46 105.9C77.34 106.02 77.28 106.64 77.28 107.76V112.92C77.28 114.04 77.34 114.68 77.46 114.84C77.62 114.96 78.26 115.02 79.38 115.02H103.92C106.2 115.02 108.14 115.84 109.74 117.48C111.38 119.08 112.2 121.02 112.2 123.3V132.72C112.2 135 111.38 136.96 109.74 138.6C108.14 140.2 106.2 141 103.92 141H77.7ZM123.905 141V132.48L164.405 97.98L166.685 97.8V106.26L126.305 140.7L123.905 141ZM126.605 118.44C124.325 118.44 122.425 117.7 120.905 116.22C119.425 114.7 118.685 112.8 118.685 110.52V105.96C118.685 103.72 119.425 101.86 120.905 100.38C122.425 98.9 124.325 98.16 126.605 98.16H131.705C133.985 98.16 135.865 98.9 137.345 100.38C138.825 101.86 139.565 103.72 139.565 105.96V110.52C139.565 112.8 138.825 114.7 137.345 116.22C135.865 117.7 133.985 118.44 131.705 118.44H126.605ZM127.085 112.08H131.165C131.725 112.08 132.205 111.96 132.605 111.72C133.045 111.44 133.265 110.86 133.265 109.98V106.56C133.265 105.68 133.125 105.12 132.845 104.88C132.565 104.6 132.005 104.46 131.165 104.46H127.085C126.205 104.46 125.625 104.6 125.345 104.88C125.105 105.12 124.985 105.68 124.985 106.56V109.98C124.985 110.86 125.105 111.44 125.345 111.72C125.625 111.96 126.205 112.08 127.085 112.08ZM157.745 140.64C155.505 140.64 153.645 139.9 152.165 138.42C150.685 136.9 149.945 135.02 149.945 132.78V128.22C149.945 125.94 150.685 124.06 152.165 122.58C153.645 121.1 155.505 120.36 157.745 120.36H162.905C165.145 120.36 167.005 121.1 168.485 122.58C170.005 124.06 170.765 125.94 170.765 128.22V132.78C170.765 135.02 170.005 136.9 168.485 138.42C167.005 139.9 165.145 140.64 162.905 140.64H157.745ZM158.345 134.34H162.365C163.245 134.34 163.805 134.22 164.045 133.98C164.325 133.7 164.465 133.12 164.465 132.24V128.76C164.465 127.88 164.325 127.32 164.045 127.08C163.805 126.8 163.245 126.66 162.365 126.66H158.345C157.465 126.66 156.885 126.8 156.605 127.08C156.365 127.32 156.245 127.88 156.245 128.76V132.24C156.245 133.12 156.365 133.7 156.605 133.98C156.885 134.22 157.465 134.34 158.345 134.34Z" fill="black
"/>
<defs>
<filter id="filter0_d" x="12.01" y="0" width="214.98" height="247" filterUnits="userSpaceOnUse" color-interpolation-filters="sRGB">
<feFlood flood-opacity="0" result="BackgroundImageFix"/>
<feColorMatrix in="SourceAlpha" type="matrix" values="0 0 0 0 0 0 0 0 0 0 0 0 0 0 0 0 0 0 127 0" result="hardAlpha"/>
<feOffset dy="4"/>
<feGaussianBlur stdDeviation="2"/>
<feComposite in2="hardAlpha" operator="out"/>
<feColorMatrix type="matrix" values="0 0 0 0 0 0 0 0 0 0 0 0 0 0 0 0 0 0 0.25 0"/>
<feBlend mode="normal" in2="BackgroundImageFix" result="effect1_dropShadow"/>
<feBlend mode="normal" in="SourceGraphic" in2="effect1_dropShadow" result="shape"/>
</filter>
</defs>
</svg>
