<svg width="180" height="148" viewBox="0 0 180 148" fill="none" xmlns="http://www.w3.org/2000/svg">
<path d="M172.62 81.5738C169.297 81.5738 165.937 81.5835 162.615 81.5666C162.131 81.5641 161.942 81.5203 161.388 81.4706C160.877 81.425 160.759 80.9749 160.759 80.4604C160.759 75.8795 160.759 71.4641 160.759 66.9747C160.759 66.4603 160.03 66.0433 159.517 66.0433C155.504 66.0433 151.548 66.0452 147.748 66.0433C144.757 66.0414 144.674 66.0395 144.671 62.9692C144.669 59.0993 144.631 55.0803 144.631 51.0001C144.631 50.4856 144.175 49.9192 143.663 49.9192C139.021 49.9192 134.605 49.9192 130.016 49.9192C129.508 49.9192 128.376 49.8023 128.376 49.2897C128.376 44.6759 128.376 40.2475 128.376 35.6853C128.376 35.1708 128.319 34.7538 127.809 34.7538C124.197 34.7501 120.97 34.7288 117.562 34.7613C113.158 34.8013 113.794 34.1721 113.758 38.7687C113.731 42.2329 113.794 45.613 113.796 49.0737C113.796 49.5882 113.426 49.9211 112.914 49.9211C105.308 49.9211 97.7871 49.9211 90.2798 49.9211C82.7726 49.9211 75.2519 49.9211 67.6457 49.9211C67.1334 49.9211 66.7182 49.5882 66.7182 49.0737C66.72 45.6152 66.739 42.191 66.7126 38.7269C66.6764 34.1281 67.223 34.7804 62.819 34.7404C59.411 34.7079 56.3613 34.7404 52.7495 34.7441C52.2372 34.7423 52.1799 35.1708 52.1799 35.6853C52.1799 40.2475 52.1799 44.6759 52.1799 49.2897C52.1799 49.8023 51.0485 49.9192 50.5358 49.9192C45.9488 49.9192 41.5314 49.9192 36.889 49.9192C36.3767 49.9192 35.9614 50.4872 35.9614 51.0001C35.9614 55.0803 35.9633 59.0246 35.9614 62.8926C35.9596 65.9627 35.9558 66.003 32.9653 66.0048C29.1651 66.0067 25.0524 66.0239 21.0388 66.0239C20.5264 66.0239 19.7968 66.4603 19.7968 66.9747C19.7968 71.4623 19.7968 75.8776 19.7968 80.4604C19.7968 80.9749 19.6979 81.425 19.1874 81.4706C18.633 81.52 18.3056 81.5641 17.8216 81.5666C14.4995 81.5838 11.1812 81.5738 7.85914 81.5738C4.55575 81.5738 4.55762 81.5757 4.55762 84.7895C4.55762 102.48 4.55762 120.173 4.55762 137.864C4.55762 139.489 4.55762 141.117 4.55762 142.829C4.55762 143.344 5.11944 143.652 5.63208 143.652C10.2247 143.652 14.5811 143.652 19.1037 143.652C19.6179 143.652 19.7972 143.344 19.7972 142.829C19.7972 127.936 19.7972 113.143 19.7972 98.1842C19.7972 97.6697 20.4468 97.7441 20.9591 97.7441C25.6796 97.7441 30.2284 97.7441 34.9527 97.7441C35.4672 97.7422 35.0367 97.6678 35.0367 98.1823C35.0367 107.852 35.0367 117.466 35.0367 127.377C35.0367 127.891 36.2957 128.348 36.8081 128.348C41.4598 128.348 45.9345 128.348 50.3958 128.348C50.9081 128.348 51.7731 128.347 51.75 128.367L51.756 128.36C51.8646 128.443 52.1808 128.796 52.1808 129.24C52.1808 133.718 52.1808 138.204 52.1808 142.81C52.1808 143.323 51.7388 143.651 52.2515 143.651C62.0636 143.651 71.5996 143.651 81.244 143.651C81.7544 143.651 82.6593 143.323 82.6593 142.808C82.6593 138.359 82.6593 133.996 82.6593 129.321C82.6593 128.808 81.7544 128.349 81.2421 128.349C71.5364 128.349 61.8538 128.349 52.1715 128.349C51.943 128.349 51.8344 128.349 51.7734 128.347C51.8266 128.343 52.1811 127.924 52.1811 127.457C52.1811 122.901 52.1811 118.338 52.1811 113.659C52.1811 113.145 51.661 113.045 52.1715 113.045C64.9038 113.045 77.5789 113.045 90.2792 113.045C102.979 113.045 115.654 113.045 128.387 113.045C128.897 113.045 128.378 113.144 128.378 113.659C128.378 118.338 128.378 122.9 128.378 127.457C128.378 127.926 128.736 128.349 128.785 128.349C128.789 128.352 128.798 128.362 128.798 128.362C128.804 128.357 128.812 128.352 128.816 128.349C128.812 128.352 128.804 128.356 128.797 128.362C128.797 128.362 128.804 128.369 128.802 128.368C128.785 128.347 129.65 128.349 130.163 128.349C134.625 128.349 139.099 128.349 143.75 128.349C144.262 128.349 145.522 127.891 145.522 127.377C145.522 117.466 145.522 107.852 145.522 98.1826C145.522 97.6681 145.091 97.7425 145.603 97.7425C150.328 97.7425 154.878 97.7425 159.597 97.7425C160.109 97.7425 160.759 97.6681 160.759 98.1826C160.759 113.143 160.759 127.936 160.759 142.828C160.759 143.342 160.937 143.65 161.45 143.65C165.974 143.65 170.329 143.65 174.922 143.65C175.438 143.652 176 143.344 176 142.83C176 141.118 176 139.491 176 137.864C176 120.173 176 102.48 176 84.7898C175.999 81.5757 175.923 81.5738 172.62 81.5738ZM82.6587 80.5714C82.6587 81.0859 81.9082 82.4383 81.3956 82.4383C71.6463 82.4383 62.0723 82.4383 52.3402 82.4383C51.8297 82.4383 52.1802 81.0862 52.1802 80.5714C52.1802 75.9904 52.1802 71.4488 52.1802 66.7947C52.1802 66.2802 51.8297 65.2225 52.3402 65.2225C62.0303 65.2225 71.7017 65.2225 81.3937 65.2225C81.906 65.2225 82.6587 66.2802 82.6587 66.7947C82.6587 71.4566 82.6587 75.9942 82.6587 80.5714ZM128.216 82.4383C118.484 82.4383 108.91 82.4383 99.1607 82.4383C98.6483 82.4383 97.8979 81.0862 97.8979 80.5714C97.8979 75.9938 97.8979 71.4563 97.8979 66.7947C97.8979 66.2802 98.6499 65.2225 99.1607 65.2225C108.853 65.2225 118.526 65.2225 128.214 65.2225C128.726 65.2225 128.376 66.2802 128.376 66.7947C128.376 71.4488 128.376 75.9904 128.376 80.5714C128.377 81.0862 128.727 82.4383 128.216 82.4383Z" fill="#7CCF9E" stroke="black" stroke-width="8"/>
<path d="M99.3151 128.348C98.8028 128.348 97.8979 128.808 97.8979 129.322C97.8979 133.995 97.8979 138.358 97.8979 142.81C97.8979 143.323 98.8025 143.651 99.3132 143.651C108.957 143.651 118.491 143.651 128.306 143.651C128.818 143.651 128.376 143.323 128.376 142.808C128.376 138.201 128.376 133.716 128.376 129.238C128.376 128.794 128.693 128.442 128.799 128.362C128.799 128.362 128.79 128.348 128.785 128.348C128.725 128.348 128.614 128.348 128.385 128.348C118.703 128.348 109.02 128.348 99.3151 128.348Z" fill="#7CCF9E" stroke="black" stroke-width="8"/>
<path d="M146.081 19.3128C150.493 19.3128 154.802 19.3128 159.181 19.3128C159.693 19.3128 160.76 18.297 160.76 17.7844C160.76 13.2969 160.76 8.89906 160.76 4.41686C160.76 3.90237 159.693 4.00927 159.181 4.00927C154.784 4.00927 150.477 4.00927 146.081 4.00927C145.569 4.00927 145.521 3.90206 145.521 4.41686C145.521 8.91406 145.521 13.31 145.521 17.7844C145.521 18.297 145.568 19.3128 146.081 19.3128Z" fill="#7CCF9E" stroke="black" stroke-width="8"/>
<path d="M130.42 34.616C134.788 34.616 139.055 34.616 143.522 34.616C144.034 34.616 143.615 33.8396 143.615 33.3248C143.615 28.8507 143.615 24.5332 143.615 20.1679C143.615 19.6534 144.034 19.3127 143.522 19.3127C139.072 19.3127 134.731 19.3127 130.42 19.3127C129.908 19.3127 130.281 19.6534 130.281 20.1679C130.281 24.6192 130.281 28.9426 130.281 33.3229C130.281 33.8374 129.908 34.616 130.42 34.616Z" fill="#7CCF9E" stroke="black" stroke-width="8"/>
<path d="M21.3759 19.3128C25.7572 19.3128 30.0644 19.3128 34.4758 19.3128C34.9882 19.3128 35.0358 18.297 35.0358 17.7844C35.0358 13.3103 35.0358 8.91437 35.0358 4.41686C35.0358 3.90237 34.9882 4.00927 34.4758 4.00927C30.0793 4.00927 25.7724 4.00927 21.3759 4.00927C20.8636 4.00927 19.7969 3.90206 19.7969 4.41686C19.7969 8.89687 19.7969 13.2947 19.7969 17.7844C19.7969 18.297 20.8636 19.3128 21.3759 19.3128Z" fill="#7CCF9E" stroke="black" stroke-width="8"/>
<path d="M37.0346 34.616C41.5018 34.616 45.7686 34.616 50.1365 34.616C50.6488 34.616 50.2756 33.8374 50.2756 33.3248C50.2756 28.9442 50.2756 24.6192 50.2756 20.1698C50.2756 19.6534 50.6491 19.3127 50.1365 19.3127C45.8255 19.3127 41.4844 19.3127 37.0346 19.3127C36.5223 19.3127 36.9413 19.6534 36.9413 20.1679C36.9413 24.5314 36.9413 28.8507 36.9413 33.3248C36.9413 33.8393 36.522 34.616 37.0346 34.616Z" fill="#7CCF9E" stroke="black" stroke-width="8"/>
</svg>
