<svg width="140" height="140" viewBox="0 0 140 140" fill="none" xmlns="http://www.w3.org/2000/svg">
<path d="M109.114 5.45104V69.826H2.97852V5.45104C2.97852 3.58222 4.4936 2.06714 6.36241 2.06714H105.73C107.599 2.06714 109.114 3.58222 109.114 5.45104Z" fill="#B5FFE1"/>
<path d="M109.113 59.4304V69.826H2.97656V5.45317C2.97656 3.58115 4.49271 2.06714 6.36259 2.06714H12.6254V57.3442C12.6254 58.497 13.5598 59.4304 14.7115 59.4304H109.113Z" fill="#93E5AB"/>
<path d="M2.97852 134.201V69.8259H109.114V134.201C109.114 136.07 107.599 137.585 105.729 137.585H6.36241C4.4936 137.585 2.97852 136.07 2.97852 134.201Z" fill="#B5FFE1"/>
<path d="M134.387 117.412H73.3977C71.5288 117.412 70.0127 115.896 70.0127 114.027V14.6606C70.0127 12.7918 71.5288 11.2756 73.3977 11.2756H134.387C136.257 11.2756 137.772 12.7918 137.772 14.6606V114.027C137.772 115.896 136.257 117.412 134.387 117.412Z" fill="#93E5AB"/>
<path d="M44.7675 126.862H13.0019C12.0803 126.862 11.3345 126.115 11.3345 125.194V82.2172C11.3345 81.2967 12.0803 80.5498 13.0019 80.5498H44.7675C45.6891 80.5498 46.4349 81.2967 46.4349 82.2172V125.194C46.4349 126.115 45.6881 126.862 44.7675 126.862Z" fill="#93E5AB"/>
<path d="M17.8823 126.862H39.8872C39.8872 113.189 32.9287 107.334 32.9287 107.334C32.8893 107.334 32.8531 107.334 32.8147 107.334C36.0804 105.841 38.3498 102.549 38.3498 98.7252C38.3498 93.4981 34.1125 89.2607 28.8853 89.2607C23.6582 89.2607 19.4208 93.4981 19.4208 98.7252C19.4208 102.549 21.6913 105.841 24.9559 107.334C24.9175 107.334 24.8813 107.334 24.8419 107.334C24.8419 107.334 17.8823 113.189 17.8823 126.862Z" fill="#FFEDE1"/>
<path d="M83.0464 107.702C81.1776 107.702 79.6615 106.186 79.6615 104.317V11.2747H73.3977C71.5288 11.2747 70.0127 12.7908 70.0127 14.6596V114.026C70.0127 115.897 71.5288 117.411 73.3977 117.411H134.386C136.255 117.411 137.772 115.897 137.772 114.026V107.702H83.0464Z" fill="#65B891"/>
<path d="M31.3241 107.335H31.208C31.208 107.335 24.2506 113.188 24.2506 126.861H17.8823C17.8823 113.188 24.843 107.335 24.843 107.335H24.9559C21.6892 105.841 19.4208 102.55 19.4208 98.7242C19.4208 93.4971 23.6571 89.2598 28.8842 89.2598C30.0008 89.2598 31.0727 89.4526 32.0678 89.8085C28.4069 91.1179 25.788 94.6137 25.788 98.7242C25.788 102.55 28.0575 105.841 31.3241 107.335Z" fill="#FFE1CC"/>
<path d="M134.386 9.20769H111.181V5.45302C111.181 2.44523 108.736 0 105.728 0H6.3622C3.3576 0 0.90918 2.44523 0.90918 5.45302V37.1707C0.90918 38.315 1.83506 39.2376 2.97617 39.2376C4.12047 39.2376 5.04422 38.315 5.04422 37.1707V5.45302C5.04422 4.72531 5.63662 4.13504 6.3622 4.13504H105.728C106.456 4.13504 107.046 4.72531 107.046 5.45302V9.20769H95.3685C94.2274 9.20769 93.3015 10.1336 93.3015 11.2747C93.3015 12.419 94.2274 13.3417 95.3685 13.3417H134.386C135.114 13.3417 135.704 13.9351 135.704 14.6596V114.026C135.704 114.754 135.114 115.343 134.386 115.343C132.989 115.343 75.1919 115.343 73.3977 115.343C72.6699 115.343 72.0807 114.754 72.0807 114.026C72.0807 111.824 72.0807 69.5073 72.0807 67.7589V14.6596C72.0807 13.9351 72.6699 13.3417 73.3977 13.3417H87.0984C88.2427 13.3417 89.1664 12.419 89.1664 11.2747C89.1664 10.1336 88.2427 9.20769 87.0984 9.20769H73.3977C70.3909 9.20769 67.9457 11.6551 67.9457 14.6596V67.7589H5.04422V45.4407C5.04422 44.2996 4.12047 43.3727 2.97617 43.3727C1.83506 43.3727 0.90918 44.2996 0.90918 45.4407V134.199C0.90918 137.207 3.3576 139.652 6.3622 139.652H105.728C108.736 139.652 111.181 137.207 111.181 134.199V119.478H134.386C137.393 119.478 139.839 117.033 139.839 114.026V14.6596C139.839 11.6551 137.393 9.20769 134.386 9.20769ZM107.046 134.199C107.046 134.926 106.456 135.517 105.728 135.517H6.3622C5.63662 135.517 5.04422 134.926 5.04422 134.199V71.8929H67.9457V114.026C67.9457 117.033 70.3909 119.478 73.3977 119.478H107.046V134.199Z" fill="black"/>
<path d="M79.6061 76.1919C86.9311 91.249 105.662 95.7495 118.899 86.9147C138.932 73.7552 132.922 42.2016 108.926 37.7651C87.8133 33.6322 69.6654 55.734 79.6061 76.1919ZM111.348 85.7587C113.067 83.9932 114.549 82.004 115.765 79.8358C116.743 80.3674 117.688 80.962 118.591 81.6268C116.419 83.4796 114.003 84.8381 111.348 85.7587ZM121.71 78.4624C120.42 77.4694 119.056 76.5904 117.631 75.8328C118.727 72.9465 119.405 69.8332 119.619 66.5751H126.455C126.053 71.0053 124.392 75.0998 121.71 78.4624ZM126.44 62.1651H119.625C119.416 58.8878 118.734 55.7511 117.623 52.8424C119.037 52.0902 120.391 51.2186 121.673 50.2352C124.332 53.5744 126.01 57.6742 126.44 62.1651ZM118.554 47.0697C117.656 47.7271 116.716 48.3174 115.745 48.8448C114.538 46.7064 113.071 44.7417 111.367 42.9912C114.114 43.9501 116.436 45.2723 118.554 47.0697ZM106.146 44.1834C108.36 45.9766 110.215 48.1522 111.665 50.6102C109.883 51.1952 108.033 51.5745 106.146 51.7418V44.1834ZM106.146 56.1645C108.694 55.9716 111.188 55.4474 113.573 54.6132C114.455 56.9753 115.01 59.5132 115.206 62.1641H106.146V56.1645ZM106.146 66.5751H115.2C115 69.2057 114.45 71.7202 113.584 74.0599C111.196 73.2246 108.698 72.6993 106.146 72.5065V66.5751ZM106.146 76.9281C108.041 77.0965 109.899 77.479 111.687 78.0671C110.233 80.5528 108.368 82.7455 106.146 84.5462V76.9281ZM81.3567 66.5751H88.2459C88.4675 69.8023 89.1654 72.9156 90.282 75.8147C88.8585 76.5701 87.4948 77.4459 86.2045 78.4358C83.4002 74.9038 81.7871 70.6984 81.3567 66.5751ZM89.2933 81.6236C90.2085 80.9502 91.1674 80.3483 92.1593 79.8113C93.3835 81.9901 94.8699 83.9921 96.5831 85.765C93.9781 84.869 91.5254 83.5105 89.2933 81.6236ZM101.735 84.5302C99.5451 82.736 97.6912 80.5368 96.2336 78.0543C98.0087 77.4726 99.8541 77.0954 101.735 76.9281V84.5302ZM101.735 72.5065C99.1924 72.6983 96.7035 73.2193 94.3254 74.0493C93.4411 71.6989 92.8753 69.1833 92.6676 66.5751H101.735V72.5065ZM101.735 62.1651H92.6676C92.8785 59.5494 93.4603 57.0115 94.3648 54.6345C96.7312 55.457 99.2063 55.9738 101.735 56.1645V62.1651ZM101.735 44.1972V51.7418C99.8711 51.5766 98.0428 51.2037 96.2827 50.6316C97.7349 48.1629 99.5771 45.9755 101.735 44.1972ZM96.6481 42.9102C94.9349 44.6863 93.4453 46.7 92.2115 48.8863C91.226 48.3557 90.2724 47.7601 89.3614 47.0942C91.7683 45.0294 94.1379 43.7583 96.6481 42.9102ZM90.3235 52.8765C89.1846 55.8022 88.4728 58.9389 88.248 62.1651H81.3417C81.7583 57.9193 83.4215 53.8162 86.2684 50.2821C87.5523 51.2623 88.9086 52.1285 90.3235 52.8765Z" fill="black"/>
<path d="M44.7677 78.4817H13.0021C10.9426 78.4817 9.2666 80.1577 9.2666 82.2172V125.194C9.2666 127.253 10.9426 128.928 13.0021 128.928H44.7677C46.8272 128.928 48.5032 127.253 48.5032 125.194V82.2172C48.5032 80.1577 46.8272 78.4817 44.7677 78.4817ZM20.0075 124.794C20.4816 116.239 23.8357 111.484 25.3913 109.718C27.6958 110.45 30.1453 110.426 32.3732 109.718C33.9202 111.484 37.286 116.259 37.7623 124.794H20.0075ZM21.4874 98.7243C21.4874 94.6468 24.8063 91.3279 28.8838 91.3279C32.9635 91.3279 36.2824 94.6468 36.2824 98.7243C36.2824 104.299 30.3179 107.859 25.4381 105.268C23.092 104.027 21.4874 101.561 21.4874 98.7243ZM44.3681 124.794H41.9027C41.4552 115.922 38.2034 110.412 36.0842 107.727C44.5482 100.951 39.7707 87.1929 28.8838 87.1929C22.5273 87.1929 17.3524 92.3667 17.3524 98.7243C17.3524 102.363 19.0454 105.613 21.6856 107.727C19.5664 110.413 16.3146 115.922 15.8671 124.794H13.4016V82.6167H44.3681V124.794Z" fill="black"/>
<path d="M55.0582 82.6167H61.468C62.6091 82.6167 63.535 81.6909 63.535 80.5497C63.535 79.4076 62.6091 78.4817 61.468 78.4817H55.0582C53.916 78.4817 52.9912 79.4076 52.9912 80.5497C52.9912 81.6909 53.916 82.6167 55.0582 82.6167Z" fill="black"/>
<path d="M55.0582 94.1951H61.468C62.6091 94.1951 63.535 93.2692 63.535 92.1271C63.535 90.9859 62.6091 90.0601 61.468 90.0601H55.0582C53.916 90.0601 52.9912 90.9859 52.9912 92.1271C52.9912 93.2692 53.916 94.1951 55.0582 94.1951Z" fill="black"/>
<path d="M55.0582 105.772H61.468C62.6091 105.772 63.535 104.848 63.535 103.705C63.535 102.563 62.6091 101.638 61.468 101.638H55.0582C53.916 101.638 52.9912 102.563 52.9912 103.705C52.9912 104.848 53.916 105.772 55.0582 105.772Z" fill="black"/>
<path d="M78.2138 124.794H55.0582C53.916 124.794 52.9912 125.72 52.9912 126.861C52.9912 128.003 53.916 128.929 55.0582 128.929H78.2138C79.356 128.929 80.2819 128.003 80.2819 126.861C80.2819 125.72 79.356 124.794 78.2138 124.794Z" fill="black"/>
<path d="M99.2333 124.794H86.484C85.3429 124.794 84.417 125.72 84.417 126.861C84.417 128.003 85.3429 128.929 86.484 128.929H99.2333C100.375 128.929 101.301 128.003 101.301 126.861C101.301 125.72 100.375 124.794 99.2333 124.794Z" fill="black"/>
</svg>
