<svg width="140" height="140" viewBox="0 0 140 140" fill="none" xmlns="http://www.w3.org/2000/svg">
<path d="M3.625 8.48661V97.9502C3.625 100.963 6.05612 103.406 9.05578 103.406H110.607C113.607 103.406 116.038 100.963 116.038 97.9502V8.48661C116.038 5.47337 113.607 3.03125 110.607 3.03125H9.05578C6.05612 3.03125 3.625 5.47337 3.625 8.48661Z" fill="#B5FFE1"/>
<path d="M9.05578 3.03125H110.607C113.607 3.03125 116.038 5.47337 116.038 8.48661V27.0337H3.625V8.48661C3.625 5.47337 6.05612 3.03125 9.05578 3.03125Z" fill="#5AA08F"/>
<path d="M16.6577 40.1257H83.9973V81.5854H16.6577V40.1257Z" fill="#71C498"/>
<path d="M125.266 89.8153L75.7686 75.4971L90.0233 125.219L98.4495 116.753L118.832 137.228L137.222 118.754L116.84 98.2806L125.266 89.8153Z" fill="#65B891"/>
<path d="M17.8633 17.7608H17.8888C19.3876 17.7608 20.5904 16.5397 20.5904 15.0331C20.5904 13.5265 19.3621 12.3054 17.8633 12.3054C16.3635 12.3054 15.1479 13.5265 15.1479 15.0331C15.1479 16.5397 16.3635 17.7608 17.8633 17.7608Z" fill="black"/>
<path d="M30.2188 17.7608H30.2443C31.7441 17.7608 32.9469 16.5397 32.9469 15.0331C32.9469 13.5265 31.7186 12.3054 30.2188 12.3054C28.719 12.3054 27.5034 13.5265 27.5034 15.0331C27.5034 16.5397 28.719 17.7608 30.2188 17.7608Z" fill="black"/>
<path d="M42.5748 17.7608H42.6002C44.099 17.7608 45.3029 16.5397 45.3029 15.0331C45.3029 13.5265 44.0735 12.3054 42.5748 12.3054C41.0749 12.3054 39.8594 13.5265 39.8594 15.0331C39.8594 16.5397 41.0749 17.7608 42.5748 17.7608Z" fill="black"/>
<path d="M63.8375 17.7597H101.646C103.146 17.7597 104.361 16.5386 104.361 15.032C104.361 13.5265 103.146 12.3054 101.646 12.3054H63.8375C62.3387 12.3054 61.1221 13.5265 61.1221 15.032C61.1221 16.5386 62.3376 17.7597 63.8375 17.7597Z" fill="black"/>
<path d="M116.038 73.4033C115.324 73.4033 114.623 73.6942 114.118 74.2024C113.613 74.7096 113.322 75.4129 113.322 76.1299C113.322 76.8481 113.613 77.5513 114.118 78.0585C114.623 78.5657 115.324 78.8576 116.038 78.8576C116.752 78.8576 117.452 78.5657 117.956 78.0585C118.461 77.5513 118.753 76.8481 118.753 76.1299C118.753 75.4129 118.462 74.7096 117.956 74.2024C117.452 73.6942 116.752 73.4033 116.038 73.4033Z" fill="black"/>
<path d="M59.1936 48.3088H55.8121C54.3122 48.3088 53.0967 49.5299 53.0967 51.0365V70.6747C53.0967 72.1813 54.3122 73.4024 55.8121 73.4024H59.1936C66.0796 73.4024 71.6833 67.7744 71.6833 60.8562C71.6833 53.9379 66.0807 48.3088 59.1936 48.3088ZM59.1936 67.947H58.5275V53.7642H59.1936C63.0863 53.7642 66.2525 56.9458 66.2525 60.8562C66.2525 64.7665 63.0863 67.947 59.1936 67.947Z" fill="black"/>
<path d="M40.8383 50.1671C40.4671 49.0568 39.4308 48.3088 38.2651 48.3088C37.0994 48.3088 36.0631 49.0568 35.6918 50.1671L29.1134 69.8053C28.635 71.2331 29.3987 72.7802 30.82 73.2607C32.2424 73.7413 33.7815 72.973 34.2599 71.5453L34.4604 70.9475H42.0698L42.2692 71.5453C42.6511 72.6843 43.7086 73.4035 44.8425 73.4035C45.1299 73.4035 45.4216 73.3577 45.7091 73.2607C47.1304 72.7802 47.8952 71.2331 47.4157 69.8053L40.8383 50.1671ZM36.2869 65.4932L38.2651 59.5893L40.2422 65.4932H36.2869Z" fill="black"/>
<path d="M139.142 116.827L120.679 98.2806L127.187 91.7449C127.865 91.0619 128.136 90.0688 127.895 89.1344C127.655 88.1999 126.942 87.4615 126.018 87.1952L86.7124 75.8242V40.1257C86.7124 38.6201 85.4968 37.3991 83.997 37.3991H16.6574C15.1586 37.3991 13.9431 38.6201 13.9431 40.1257V81.5853C13.9431 83.0919 15.1586 84.313 16.6574 84.313H75.47L80.1625 100.678H9.05535C7.55765 100.678 6.33996 99.4548 6.33996 97.9503V29.7616H113.322V65.2203C113.322 66.7259 114.538 67.9469 116.038 67.9469C117.536 67.9469 118.753 66.7259 118.753 65.2203V8.48674C118.753 3.97436 115.099 0.303711 110.607 0.303711H9.05535C4.56329 0.303711 0.90918 3.97436 0.90918 8.48674V97.9503C0.90918 102.463 4.56329 106.133 9.05535 106.133H81.726L87.4135 125.973C87.6797 126.901 88.4137 127.618 89.344 127.859C90.2731 128.1 91.2628 127.83 91.9427 127.147L98.449 120.611L116.912 139.157C117.421 139.669 118.111 139.955 118.831 139.955C119.552 139.955 120.242 139.669 120.751 139.157L139.142 120.684C140.202 119.618 140.202 117.891 139.142 116.827ZM9.05535 5.75907H110.607C112.103 5.75907 113.322 6.98226 113.322 8.48674V24.3062H6.33996V8.48674C6.33996 6.98226 7.55765 5.75907 9.05535 5.75907ZM19.3728 78.8576V42.8534H81.2816V74.2525L76.5201 72.8749C75.5697 72.601 74.5472 72.8653 73.8482 73.5674C73.1492 74.2696 72.8861 75.2978 73.1587 76.2514L73.9065 78.8576H19.3728ZM118.831 133.371L100.37 114.825C99.8396 114.292 99.1448 114.025 98.4501 114.025C97.7542 114.025 97.0595 114.292 96.5291 114.825L91.3582 120.02L79.7361 79.4831L120.09 91.1567L114.92 96.3521C114.41 96.8624 114.124 97.5571 114.124 98.2806C114.124 99.003 114.41 99.6977 114.92 100.209L133.382 118.754L118.831 133.371Z" fill="black"/>
<path d="M35.6024 95.2228C37.1022 95.2228 38.3178 94.0018 38.3178 92.4962C38.3178 90.9896 37.1022 89.7686 35.6024 89.7686H17.0455C15.5456 89.7686 14.3301 90.9896 14.3301 92.4962C14.3301 94.0018 15.5456 95.2228 17.0455 95.2228H35.6024Z" fill="black"/>
<path d="M48.2475 94.4248C48.7524 93.9176 49.043 93.2133 49.043 92.4962C49.043 91.7792 48.7534 91.0749 48.2475 90.5677C47.7426 90.0605 47.0425 89.7686 46.3276 89.7686C45.6138 89.7686 44.9137 90.0605 44.4088 90.5677C43.9039 91.0749 43.6133 91.7792 43.6133 92.4962C43.6133 93.2133 43.9029 93.9176 44.4088 94.4248C44.9137 94.932 45.6138 95.2239 46.3276 95.2239C47.0425 95.2239 47.7426 94.932 48.2475 94.4248Z" fill="black"/>
</svg>
