<svg width="132" height="140" viewBox="0 0 132 140" fill="none" xmlns="http://www.w3.org/2000/svg">
<path d="M125.3 137.606C128.014 137.606 130.075 135.163 129.618 132.488L126.823 116.124C125.577 108.828 120.232 102.905 113.101 100.918L85.184 94.9855C82.2732 94.4006 80.1785 91.0231 80.1785 88.0547V74.8228H51.9683V88.0547C51.9683 91.0231 49.8746 94.4006 46.9627 94.9855L19.0455 100.918C11.9144 102.905 6.57006 108.828 5.32453 116.124L2.52877 132.488C2.07275 135.163 4.13335 137.606 6.84708 137.606H125.3Z" fill="#FFEDE1"/>
<path d="M89.3529 11.3695C80.7791 2.00624 67.8434 2.04566 67.8434 2.04566H64.3028C64.3028 2.04566 51.3682 2.00624 42.7944 11.3684C38.2087 16.375 35.9488 23.0864 36.3281 29.8638L37.8539 57.0533C38.1138 61.6912 39.6257 66.1747 42.2414 70.0146C45.2524 74.4362 56.2043 84.1607 58.6953 85.224C63.41 87.2346 68.7362 87.2346 73.4509 85.224C75.9419 84.1607 86.8938 74.4362 89.9048 70.0146C92.5194 66.1747 94.0313 61.6933 94.2924 57.0543C94.7313 49.2136 95.442 36.5602 95.8181 29.8606C96.1985 23.0832 93.9376 16.3761 89.3529 11.3695Z" fill="#FFEDE1"/>
<path d="M89.3529 11.3695C80.7792 2.00624 67.8434 2.04566 67.8434 2.04566H64.3029C64.3029 2.04566 61.7479 2.0382 58.1562 2.85115C62.6461 3.86866 68.7565 6.16792 73.5191 11.3706C78.1038 16.3761 80.3647 23.0832 79.9843 29.8606C79.6082 36.5602 78.8986 49.2136 78.4575 57.0554C78.1976 61.6944 76.6857 66.1747 74.071 70.0157C71.2412 74.1699 61.3995 83.0089 58.1562 84.9406C58.364 85.0642 58.5451 85.1601 58.6954 85.224C63.41 87.2346 68.7363 87.2346 73.4509 85.224C75.942 84.1618 86.8939 74.4373 89.9049 70.0157C92.5195 66.1747 94.0314 61.6944 94.2924 57.0554C94.7314 49.2136 95.4421 36.5613 95.8182 29.8606C96.1985 23.0832 93.9376 16.3761 89.3529 11.3695Z" fill="#FFE1CC"/>
<path d="M129.618 132.488L126.823 116.124C125.577 108.828 120.232 102.905 113.101 100.918L87.6292 95.5044L87.4545 95.6259C74.6029 104.568 57.5449 104.568 44.6933 95.6259L44.5186 95.5044L19.0455 100.918C11.9144 102.905 6.57006 108.828 5.32453 116.124L2.52877 132.488C2.07275 135.163 4.13335 137.606 6.84708 137.606H125.3C128.014 137.606 130.075 135.163 129.618 132.488Z" fill="#4E878C"/>
<path d="M129.673 133.496C129.676 133.442 129.68 133.389 129.681 133.336C129.681 133.328 129.681 133.321 129.681 133.313C129.682 133.259 129.682 133.205 129.681 133.15C129.681 133.144 129.681 133.137 129.681 133.13C129.678 133.076 129.676 133.022 129.673 132.967C129.673 132.96 129.672 132.951 129.672 132.944C129.67 132.918 129.669 132.893 129.667 132.867C129.666 132.864 129.666 132.861 129.666 132.857C129.664 132.832 129.66 132.806 129.658 132.781C129.657 132.773 129.656 132.765 129.656 132.757C129.653 132.732 129.65 132.706 129.647 132.681C129.647 132.677 129.645 132.674 129.645 132.671C129.642 132.645 129.639 132.62 129.635 132.594C129.634 132.587 129.633 132.578 129.632 132.57C129.627 132.544 129.623 132.519 129.619 132.493C129.619 132.491 129.619 132.49 129.618 132.488L126.823 116.125C125.576 108.828 120.232 102.905 113.102 100.918L87.629 95.5056L87.4543 95.6271C82.827 98.8458 77.6553 100.906 72.3301 101.808L96.4489 106.933C103.58 108.92 108.924 114.843 110.171 122.14L112.812 137.606H125.301C125.342 137.606 125.385 137.605 125.427 137.604C125.448 137.604 125.469 137.603 125.49 137.602C125.573 137.599 125.657 137.592 125.739 137.585C125.76 137.583 125.781 137.581 125.801 137.579C125.924 137.565 126.045 137.545 126.165 137.521C126.205 137.514 126.245 137.505 126.284 137.496C126.382 137.473 126.479 137.447 126.575 137.419C126.652 137.395 126.727 137.371 126.802 137.343C126.933 137.296 127.06 137.242 127.184 137.183C127.208 137.172 127.231 137.16 127.255 137.148C127.261 137.145 127.266 137.143 127.273 137.14C127.32 137.116 127.365 137.092 127.411 137.066C127.418 137.063 127.422 137.06 127.428 137.058C127.474 137.032 127.519 137.005 127.564 136.979C127.569 136.975 127.575 136.971 127.581 136.968C127.602 136.955 127.623 136.942 127.643 136.929C127.646 136.928 127.647 136.926 127.648 136.926C127.669 136.913 127.69 136.899 127.712 136.885C127.717 136.882 127.721 136.877 127.727 136.874C127.748 136.86 127.769 136.847 127.789 136.832C127.791 136.831 127.793 136.83 127.794 136.828C127.814 136.815 127.834 136.801 127.854 136.786C127.861 136.782 127.865 136.778 127.87 136.774C127.891 136.759 127.911 136.744 127.931 136.729C127.932 136.728 127.933 136.727 127.935 136.726C127.956 136.711 127.976 136.695 127.996 136.679C128 136.676 128.005 136.673 128.009 136.67C128.049 136.637 128.09 136.604 128.129 136.57C128.135 136.566 128.139 136.562 128.144 136.558C128.184 136.524 128.223 136.49 128.261 136.454C128.265 136.45 128.269 136.446 128.273 136.443C128.312 136.407 128.35 136.37 128.387 136.333C128.391 136.33 128.395 136.326 128.399 136.322C128.435 136.285 128.471 136.247 128.508 136.208C128.512 136.204 128.515 136.201 128.519 136.196C128.554 136.157 128.59 136.119 128.623 136.079C128.627 136.075 128.631 136.07 128.635 136.066C128.668 136.026 128.701 135.986 128.733 135.945C128.738 135.941 128.741 135.936 128.745 135.93C128.777 135.89 128.808 135.849 128.839 135.808C128.842 135.802 128.846 135.797 128.851 135.791C128.88 135.749 128.91 135.708 128.939 135.665C128.942 135.66 128.945 135.654 128.949 135.649C128.977 135.605 129.006 135.562 129.034 135.517C129.036 135.513 129.039 135.507 129.042 135.503C129.069 135.458 129.096 135.412 129.122 135.367C129.124 135.362 129.127 135.358 129.13 135.353C129.155 135.307 129.18 135.261 129.204 135.214C129.206 135.209 129.21 135.203 129.213 135.197C129.236 135.151 129.259 135.105 129.28 135.058C129.283 135.051 129.285 135.046 129.289 135.04C129.31 134.992 129.331 134.945 129.351 134.897C129.354 134.89 129.356 134.885 129.358 134.879C129.378 134.831 129.397 134.782 129.414 134.733C129.417 134.727 129.419 134.722 129.421 134.716C129.439 134.667 129.456 134.617 129.472 134.568C129.474 134.561 129.476 134.555 129.478 134.547C129.494 134.498 129.509 134.448 129.523 134.398C129.525 134.392 129.526 134.385 129.528 134.378C129.542 134.328 129.555 134.277 129.567 134.226C129.569 134.219 129.57 134.213 129.571 134.206C129.583 134.155 129.594 134.103 129.604 134.052C129.605 134.044 129.606 134.039 129.607 134.032C129.618 133.979 129.626 133.928 129.634 133.875C129.635 133.869 129.636 133.862 129.637 133.856C129.644 133.803 129.651 133.75 129.657 133.696C129.657 133.69 129.658 133.683 129.658 133.677C129.664 133.624 129.669 133.57 129.672 133.517C129.672 133.51 129.673 133.503 129.673 133.496Z" fill="#275654"/>
<path d="M80.1782 88.0539V80.0491C77.2333 82.6488 74.5377 84.7605 73.4509 85.224C70.5805 86.4482 67.4833 86.9266 64.436 86.6603V94.2421C64.436 97.2115 66.5297 100.588 69.4416 101.173L72.3119 101.804L72.329 101.807C77.6541 100.905 82.827 98.8459 87.4542 95.6261L87.629 95.5046L85.1838 94.9847C82.2729 94.4008 80.1782 91.0233 80.1782 88.0539Z" fill="#FFE1CC"/>
<path d="M38.1084 51.2612H29.0338C27.8373 51.2612 26.8667 50.2916 26.8667 49.094V31.3722C26.8667 30.1757 27.8373 29.2051 29.0338 29.2051H38.1084V51.2612Z" fill="#465058"/>
<path d="M94.0278 51.2612H103.102C104.3 51.2612 105.27 50.2916 105.27 49.094V31.3722C105.27 30.1757 104.3 29.2051 103.102 29.2051H94.0278V51.2612Z" fill="#323E44"/>
<path d="M32.9541 28.4626V52.005C32.9541 53.0108 33.7702 53.8259 34.776 53.8259H57.7602C59.2252 53.8259 60.6614 53.4263 61.9144 52.6688C64.4694 51.126 67.6679 51.126 70.2228 52.6688C71.4758 53.4263 72.9121 53.8259 74.3771 53.8259H97.3612C98.367 53.8259 99.1831 53.0108 99.1831 52.005V28.4626C99.1831 27.4568 98.367 26.6406 97.3612 26.6406H34.776C33.7702 26.6406 32.9541 27.4568 32.9541 28.4626Z" fill="#93E5AB"/>
<path d="M97.3609 26.6406H83.397V53.8259H97.3609C98.3667 53.8259 99.1828 53.0108 99.1828 52.005V28.4626C99.1828 27.4568 98.3667 26.6406 97.3609 26.6406Z" fill="#65B891"/>
<path d="M71.9541 34.4441C71.936 34.3738 71.9189 34.3035 71.9189 34.2683C71.9189 33.7068 72.7447 33.3201 73.3584 33.3201C73.7451 33.3201 74.0435 33.4426 74.1308 33.7772L76.8179 43.2938L79.4869 33.7772C79.5743 33.4426 79.8737 33.3201 80.2594 33.3201C80.8741 33.3201 81.6999 33.7239 81.6999 34.2683C81.6999 34.3216 81.6818 34.3738 81.6636 34.4441L78.2925 45.4887C78.1348 46.0161 77.4849 46.2612 76.8179 46.2612C76.151 46.2612 75.5181 46.0161 75.3433 45.4887L71.9541 34.4441Z" fill="black"/>
<path d="M82.9112 34.0234C82.9112 33.6548 83.2096 33.3213 83.6485 33.3213H87.1251C89.4254 33.3213 91.2868 34.1992 91.2868 36.9907C91.2868 39.0098 90.3034 40.0987 88.9865 40.5025L91.2868 44.7697C91.3571 44.857 91.3742 44.9806 91.3742 45.0509C91.3742 45.6306 90.6198 46.2443 89.9518 46.2443C89.6364 46.2443 89.3381 46.0514 89.1623 45.6998L86.6691 40.853H85.1934V45.4366C85.1934 45.9108 84.6319 46.1569 84.0523 46.1569C83.4898 46.1569 82.9102 45.9108 82.9102 45.4366V34.0234H82.9112ZM85.1934 35.3222V39.062H87.1251C88.2662 39.062 89.0035 38.5879 89.0035 37.2006C89.0035 35.8134 88.2662 35.3222 87.1251 35.3222H85.1934Z" fill="black"/>
<path d="M131.634 132.143L130.468 125.316C130.278 124.203 129.22 123.454 128.107 123.644C126.993 123.835 126.245 124.892 126.435 126.005L127.602 132.832C127.719 133.522 127.536 134.197 127.084 134.731C126.633 135.266 125.999 135.56 125.299 135.56H110.96L108.399 119.823C108.218 118.708 107.169 117.952 106.052 118.133C104.936 118.314 104.18 119.364 104.361 120.48L106.816 135.56H25.3315L27.7853 120.48C27.9675 119.364 27.2099 118.314 26.0955 118.133C24.9821 117.952 23.9294 118.707 23.7472 119.823L21.1869 135.56H6.8469C6.14689 135.56 5.51294 135.266 5.06225 134.731C4.61156 134.197 4.42724 133.522 4.54551 132.832L7.3402 116.47C8.29592 110.873 12.0101 106.136 17.0828 103.808C17.3502 103.751 17.5984 103.642 17.8158 103.492C18.3741 103.267 18.9484 103.07 19.5344 102.905L44.0847 97.6887C50.6106 102.068 58.1988 104.379 66.0736 104.379C73.9484 104.379 81.5355 102.068 88.0625 97.6887L112.612 102.905C118.919 104.688 123.702 110.005 124.806 116.47C124.997 117.583 126.054 118.331 127.167 118.141C128.28 117.952 129.029 116.894 128.839 115.78C127.466 107.743 121.504 101.135 113.651 98.947C113.61 98.9353 113.569 98.9257 113.526 98.9172L88.054 93.5036L85.5875 92.9794C83.9999 92.6608 82.2249 90.4862 82.2249 88.0548V80.9685C85.9998 77.5824 89.9345 73.6072 91.5956 71.1662C94.4148 67.028 96.0535 62.1876 96.3348 57.1704L96.4072 55.8716H97.3619C99.0368 55.8716 100.467 54.8008 101.003 53.307H103.104C105.426 53.307 107.316 51.418 107.316 49.0953V31.3724C107.316 29.0497 105.426 27.1596 103.104 27.1596H101.003C100.498 25.7521 99.1987 24.7208 97.6485 24.6057C96.8995 19.1239 94.5267 13.9916 90.8626 9.98867C81.8499 0.147033 68.603 0 67.8582 0C67.8529 0 67.8476 0 67.8433 0H64.3081C63.7328 0.00532728 50.3655 0.0724512 41.2857 9.98654C37.6205 13.9884 35.2488 19.1207 34.4987 24.6046C32.9442 24.7154 31.6401 25.7489 31.134 27.1596H29.0329C26.7102 27.1596 24.8201 29.0497 24.8201 31.3724V38.1882H21.6333C17.7604 38.1882 14.6109 41.3377 14.6109 45.2106V100.461C8.71997 103.46 4.44322 109.132 3.30744 115.78L0.512745 132.143C0.193107 134.014 0.711985 135.919 1.93513 137.37C3.15934 138.82 4.94931 139.652 6.8469 139.652H125.299C127.197 139.652 128.988 138.82 130.211 137.37C131.435 135.919 131.954 134.014 131.634 132.143ZM101.228 31.251H103.103C103.17 31.251 103.224 31.3053 103.224 31.3724V49.0942C103.224 49.1613 103.17 49.2157 103.103 49.2157H101.228V31.251ZM82.6372 96.1747C77.5518 98.8756 71.9006 100.287 66.0736 100.287C60.2445 100.287 54.5912 98.8745 49.5047 96.1725C52.3366 94.5222 54.0137 91.0243 54.0137 88.0548V84.4482C55.6907 85.7854 57.0897 86.7624 57.893 87.1055C60.4927 88.2136 63.2832 88.7687 66.0736 88.7687C68.864 88.7687 71.6545 88.2146 74.2531 87.1055C75.0576 86.7624 76.4565 85.7843 78.1325 84.4482V88.0548C78.1325 91.0264 79.8138 94.5285 82.6372 96.1747ZM44.3031 12.7503C52.1363 4.19684 64.1792 4.09136 64.3028 4.09136H67.8497H67.8508C68.0287 4.09136 79.9917 4.17553 87.8441 12.7514C90.8221 16.0043 92.7932 20.1468 93.5102 24.595H38.6359C39.354 20.1446 41.3251 16.0021 44.3031 12.7503ZM34.9995 28.6864H36.3409H36.375H97.137V51.7802H74.3767C73.2846 51.7802 72.2138 51.4819 71.2794 50.9172C68.0649 48.9759 64.0716 48.9759 60.8571 50.9172C59.9227 51.4819 58.8519 51.7802 57.7598 51.7802H54.0659C52.9365 51.7802 52.0202 52.6965 52.0202 53.8259C52.0202 54.9553 52.9365 55.8716 54.0659 55.8716H57.7598C59.5967 55.8716 61.3994 55.3697 62.9721 54.4194C64.8824 53.2665 67.2552 53.2665 69.1645 54.4194C70.7371 55.3697 72.5388 55.8716 74.3757 55.8716H92.3095L92.2487 56.9402C92.009 61.2159 90.6143 65.3382 88.2138 68.8627C85.2604 73.2002 74.5238 82.5421 72.6486 83.3412C68.4688 85.1237 63.6763 85.1237 59.4976 83.3412C58.8818 83.0791 56.6315 81.4383 53.3488 78.5392C53.3318 78.5232 53.3137 78.5072 53.2956 78.4923C52.8918 78.1354 52.473 77.7593 52.0394 77.3651C48.2815 73.9471 45.1757 70.6889 43.9323 68.8627C41.5318 65.3382 40.1361 61.2149 39.8964 56.9381L39.8367 55.8716H44.5386C45.669 55.8716 46.5842 54.9553 46.5842 53.8259C46.5842 52.6954 45.669 51.7802 44.5386 51.7802H34.9995V28.6864ZM28.9125 31.3724C28.9125 31.3053 28.9669 31.251 29.034 31.251H30.9081V49.2157H29.034C28.9669 49.2157 28.9125 49.1613 28.9125 49.0942V31.3724ZM18.7023 45.2106C18.7023 43.5943 20.017 42.2795 21.6333 42.2795H24.8212V49.0942C24.8212 51.4169 26.7113 53.307 29.034 53.307H31.134C31.6699 54.8008 33.0998 55.8716 34.7758 55.8716H35.7389L35.8125 57.1682C36.0937 62.1866 37.7324 67.028 40.5516 71.1662C42.2127 73.6072 46.1474 77.5824 49.9223 80.9685V88.0548C49.9223 90.4862 48.1473 92.6608 46.5374 92.9847L44.0932 93.5036L18.7023 98.8991V45.2106Z" fill="black"/>
</svg>
